<?xml version="1.0" standalone="no"?>
<!DOCTYPE svg PUBLIC "-//W3C//DTD SVG 20010904//EN"
 "http://www.w3.org/TR/2001/REC-SVG-20010904/DTD/svg10.dtd">
<svg version="1.0" xmlns="http://www.w3.org/2000/svg"
 width="825.000000pt" height="549.000000pt" viewBox="0 0 825.000000 549.000000"
 preserveAspectRatio="xMidYMid meet">
<metadata>
Created by potrace 1.10, written by Peter Selinger 2001-2011
</metadata>
<g transform="translate(0.000000,549.000000) scale(0.100000,-0.100000)"
fill="#000000" stroke="none">
<path d="M4265 5420 c-46 -6 -78 -18 -146 -56 -25 -13 -26 -16 -21 -89 4 -59
1 -79 -11 -93 -9 -9 -17 -35 -19 -57 l-3 -40 -68 0 c-67 0 -68 0 -84 -33 -14
-28 -14 -37 -3 -58 20 -37 2 -49 -47 -33 -21 7 -45 19 -54 26 -36 30 -61 16
-155 -83 l-91 -95 14 -52 c7 -28 13 -84 13 -124 l0 -72 -53 -43 c-29 -24 -64
-50 -77 -59 -21 -14 -24 -26 -32 -120 -4 -57 -12 -225 -17 -374 -6 -148 -15
-283 -20 -300 -6 -16 -13 -51 -16 -77 -6 -45 -28 -78 -43 -64 -4 4 -7 134 -7
289 0 232 -2 281 -14 285 -8 3 -20 -3 -27 -12 -7 -10 -22 -16 -36 -14 -22 3
-23 8 -26 86 -2 68 -6 84 -20 89 -27 9 -62 45 -62 62 0 9 7 29 15 45 9 17 15
56 15 97 0 68 -1 69 -47 122 -27 30 -62 70 -80 90 -17 20 -35 37 -40 37 -5 0
-36 -30 -68 -67 -82 -92 -99 -109 -115 -115 -13 -4 -12 -18 4 -94 38 -178 47
-295 26 -335 -13 -24 -70 -27 -70 -4 0 10 -10 15 -30 15 -20 0 -30 -5 -30 -15
0 -10 -10 -15 -30 -15 -20 0 -30 5 -30 15 0 18 -46 21 -53 3 -3 -7 -2 -41 1
-75 l5 -63 -82 0 c-75 0 -81 -2 -81 -21 0 -13 11 -25 33 -34 40 -18 75 -48
117 -103 l33 -43 -18 -66 c-11 -40 -18 -104 -19 -165 -1 -85 2 -101 17 -109
37 -21 9 -70 -56 -97 -38 -16 -75 -16 -59 0 16 16 15 38 -2 38 -7 0 -19 -7
-26 -15 -7 -8 -21 -15 -31 -15 -11 0 -19 7 -19 15 0 8 7 15 15 15 8 0 15 9 15
20 0 24 -13 26 -30 5 -7 -8 -16 -15 -21 -15 -15 0 -10 40 6 46 8 4 15 18 15
32 0 14 16 44 36 69 33 40 40 73 15 73 -5 0 -27 -21 -47 -47 -21 -27 -43 -52
-49 -58 -6 -5 -30 -36 -54 -68 -23 -32 -63 -79 -87 -104 -24 -26 -44 -53 -44
-60 0 -23 37 -14 55 13 24 38 53 64 69 64 8 0 23 -13 33 -30 9 -16 23 -30 30
-30 7 0 13 -11 13 -25 0 -18 -7 -28 -24 -35 -13 -5 -27 -14 -31 -19 -3 -6 -24
-11 -45 -11 -27 0 -42 -6 -49 -17 -8 -15 -13 -16 -31 -5 -18 11 -21 10 -30
-13 -11 -29 -22 -31 -40 -10 -18 21 -37 19 -43 -6 -5 -17 -11 -20 -32 -15 -21
5 -27 2 -35 -20 -10 -25 -12 -26 -29 -10 -21 19 -31 12 -31 -20 0 -28 -18 -41
-26 -20 -8 21 -34 20 -49 -1 -16 -21 -45 -10 -45 17 0 12 -7 34 -15 49 -15 31
-12 41 16 41 10 0 23 8 28 18 8 16 19 18 65 14 46 -4 56 -2 56 11 0 9 -10 17
-22 19 -29 4 -34 25 -7 33 20 7 20 8 -14 37 -31 27 -34 33 -24 50 10 16 9 21
-6 29 -26 15 -11 29 29 29 40 0 43 21 5 30 -12 3 -22 10 -22 15 0 5 10 12 22
15 12 3 24 11 26 17 6 16 -49 43 -86 43 -33 0 -65 36 -39 44 7 3 27 9 43 14
43 13 33 27 -22 30 -73 4 -82 10 -53 32 24 18 24 19 6 39 -11 12 -25 21 -32
21 -11 0 -34 29 -34 43 0 2 18 7 40 11 45 7 57 36 15 36 -28 0 -97 34 -116 56
-10 13 -10 17 2 25 8 5 22 9 32 9 31 0 13 25 -21 28 -17 2 -36 10 -42 18 -7 8
-19 14 -26 14 -23 0 -16 27 8 33 l22 6 -25 23 c-60 56 -146 126 -165 136 -28
15 -34 7 -34 -40 0 -21 -7 -55 -15 -75 -19 -45 -19 -62 1 -85 13 -14 14 -21 5
-32 -9 -11 -10 -20 -1 -36 9 -17 8 -29 -5 -57 -16 -33 -16 -37 -1 -45 20 -11
21 -61 1 -78 -8 -7 -15 -21 -15 -31 0 -23 25 -25 34 -4 3 8 10 15 16 15 17 0
11 -30 -11 -58 -19 -25 -19 -27 -3 -39 15 -11 15 -15 3 -30 -8 -10 -20 -22
-26 -26 -22 -14 -14 -27 16 -27 17 0 31 6 35 16 6 16 26 11 26 -7 0 -6 -11
-20 -25 -33 -21 -20 -23 -25 -11 -35 8 -7 12 -21 8 -33 -3 -13 1 -24 12 -30
18 -10 22 -53 6 -63 -7 -4 -7 -12 0 -25 5 -10 10 -28 10 -39 0 -23 19 -28 38
-9 21 21 23 2 6 -41 -10 -26 -13 -46 -7 -52 8 -8 59 -12 126 -10 9 0 27 0 40
0 12 -1 31 1 42 3 15 2 20 -4 25 -32 4 -19 12 -45 18 -57 7 -13 9 -30 4 -44
-7 -19 -10 -20 -15 -6 -9 23 -34 21 -47 -2 -14 -28 -13 -32 15 -65 27 -31 33
-66 12 -66 -16 0 -42 39 -42 64 -1 27 -50 40 -70 19 -21 -21 -19 -53 3 -53 20
0 62 -50 62 -75 0 -20 56 -21 64 0 8 22 26 18 26 -6 0 -13 -11 -25 -32 -35
-36 -16 -53 -26 -111 -66 -22 -16 -44 -28 -50 -28 -5 0 -15 -7 -22 -17 -16
-21 -45 -10 -45 18 0 16 5 20 20 16 13 -3 24 3 35 19 8 13 24 24 35 24 11 0
20 5 20 10 0 6 11 15 25 20 37 14 31 33 -9 28 -28 -3 -36 1 -49 24 -9 16 -12
30 -6 33 18 12 9 35 -15 35 -13 0 -26 7 -30 15 -3 8 -12 15 -21 15 -11 0 -15
-10 -15 -36 0 -34 -1 -35 -29 -29 -24 5 -30 2 -36 -15 -6 -19 -9 -18 -31 16
-32 47 -26 64 25 64 22 0 42 4 46 10 9 14 -17 50 -37 50 -25 0 -31 17 -11 29
17 9 17 11 1 39 -10 17 -18 41 -18 54 0 14 -11 35 -25 48 -15 14 -23 30 -20
39 7 18 -12 31 -47 31 -34 0 -47 19 -19 27 32 8 25 28 -19 49 -41 20 -48 32
-28 52 12 12 12 12 -37 27 -8 2 -15 16 -15 30 0 16 -6 25 -15 25 -8 0 -33 18
-55 40 -25 25 -42 36 -44 28 -3 -7 -11 -35 -20 -62 -20 -62 -20 -90 -1 -120
12 -18 13 -30 5 -50 -13 -35 -13 -35 10 -29 15 4 20 0 20 -15 0 -12 -4 -24
-10 -27 -15 -9 -12 -35 4 -35 24 0 28 -17 11 -56 -20 -49 -19 -57 6 -49 20 7
22 5 16 -28 -3 -19 -1 -39 6 -46 8 -8 6 -16 -8 -31 -14 -16 -15 -20 -4 -24 50
-15 52 -17 41 -28 -20 -20 -14 -38 12 -38 13 0 27 -8 31 -17 6 -17 7 -17 20 0
7 10 22 18 32 16 10 -1 26 1 36 6 26 11 42 1 65 -43 22 -44 20 -52 -14 -52
-36 0 -48 -54 -14 -63 13 -3 20 -14 20 -29 0 -16 8 -29 24 -36 13 -6 30 -24
39 -40 14 -30 14 -30 -32 -65 -55 -40 -104 -67 -124 -67 -8 0 -20 -7 -27 -15
-25 -31 -33 -9 -34 95 l-1 104 -375 -2 c-206 -2 -460 -7 -565 -12 -104 -6
-216 -10 -247 -10 l-58 0 0 -1265 c0 -696 1 -1265 3 -1265 1 0 37 7 80 15 43
8 106 15 140 15 34 0 78 5 98 10 20 6 96 15 170 20 74 6 159 15 189 19 30 5
89 10 131 10 41 1 100 6 130 11 30 6 126 15 214 20 88 5 194 14 235 20 41 5
120 9 175 10 55 0 129 5 165 10 36 5 174 14 308 20 134 5 248 12 252 15 5 3
157 10 337 16 180 5 414 14 518 19 248 12 1632 12 1890 0 110 -6 342 -14 515
-20 173 -5 356 -14 405 -20 50 -5 144 -10 210 -10 66 -1 158 -5 205 -10 47 -6
171 -14 275 -20 105 -5 217 -14 250 -20 33 -5 98 -10 145 -10 47 0 130 -7 185
-15 55 -8 132 -15 170 -15 39 0 99 -5 135 -11 36 -5 119 -14 185 -19 66 -4
156 -13 200 -19 44 -6 123 -15 175 -21 52 -6 110 -14 128 -17 l32 -5 0 1276
c0 1209 -1 1276 -17 1276 -10 0 -67 -7 -128 -15 -60 -8 -148 -15 -195 -15 -47
0 -134 -7 -195 -15 -60 -8 -148 -15 -195 -15 -47 0 -114 -5 -150 -11 -95 -15
-342 -27 -362 -17 -10 5 -21 20 -24 33 -3 14 -10 25 -15 25 -5 0 -14 10 -20
23 -33 73 -59 96 -107 97 -54 0 -72 15 -72 60 0 22 6 59 14 82 8 24 16 65 19
93 6 58 40 95 88 95 19 0 29 5 29 15 0 14 -22 20 -63 16 -9 -1 -20 6 -24 16
-3 10 -12 22 -20 26 -7 4 -13 19 -13 33 0 14 -5 35 -12 47 -7 14 -11 64 -10
136 2 91 6 118 19 133 16 18 17 17 30 -12 10 -26 15 -29 32 -21 15 8 22 6 33
-11 l14 -21 36 32 c20 17 45 31 57 31 12 0 30 5 40 12 23 14 51 4 58 -22 6
-21 28 -27 38 -10 4 6 15 8 26 5 14 -5 22 0 29 21 10 25 11 26 29 10 18 -17
21 -15 55 44 40 68 50 146 21 170 -8 7 -15 20 -15 30 0 10 -7 23 -15 30 -8 7
-15 16 -15 21 0 5 -8 17 -17 27 -10 10 -43 49 -73 87 -76 93 -106 123 -170
164 -102 66 -191 86 -248 57 -17 -9 -45 -16 -62 -16 -40 0 -78 -20 -172 -92
-42 -32 -81 -58 -87 -58 -16 0 -101 -90 -101 -108 0 -9 -7 -26 -15 -36 -21
-28 -21 -169 0 -186 8 -7 15 -18 15 -25 0 -7 7 -18 15 -25 20 -17 63 4 75 36
6 16 15 20 33 17 19 -4 26 0 31 19 6 21 7 22 20 6 14 -20 36 -24 36 -8 0 18
29 10 35 -10 5 -15 15 -20 41 -20 30 0 34 -3 30 -18 -7 -21 18 -48 49 -54 26
-4 36 -68 11 -68 -9 0 -16 6 -16 14 0 20 -20 30 -33 17 -16 -16 32 -64 60 -58
18 3 22 -2 28 -29 3 -18 3 -61 0 -96 -3 -35 -2 -99 2 -144 11 -105 5 -130 -30
-126 -34 4 -35 -15 -2 -28 20 -8 23 -14 17 -27 -13 -27 -37 -81 -64 -148 -25
-59 -26 -60 -68 -63 -63 -5 -70 9 -32 63 37 52 37 55 17 55 -8 0 -15 -3 -15
-7 0 -5 -16 -21 -36 -36 -33 -27 -37 -28 -53 -13 -10 9 -24 16 -32 16 -8 0
-26 12 -42 25 -21 19 -26 30 -21 50 5 19 2 25 -9 25 -9 0 -19 -4 -22 -10 -9
-15 -55 19 -55 41 0 26 -12 24 -38 -6 -12 -14 -26 -25 -31 -25 -18 0 -21 18
-6 30 8 7 15 20 15 29 0 10 7 26 15 37 19 25 19 54 0 54 -8 0 -15 -5 -15 -11
0 -6 -13 -28 -30 -49 -16 -21 -30 -42 -30 -47 0 -10 -40 -36 -46 -30 -3 2 1
16 7 31 18 38 5 43 -34 13 -19 -14 -37 -23 -41 -20 -3 4 -6 26 -6 50 0 46 -13
56 -31 22 -6 -12 -14 -17 -18 -13 -13 15 -41 115 -41 144 0 15 -7 47 -15 70
-8 23 -15 57 -15 75 0 37 -24 100 -42 111 -6 4 -50 10 -97 13 l-86 6 3 36 c1
21 -3 41 -11 47 -10 9 -13 32 -9 89 3 60 0 83 -12 98 -14 18 -15 13 -16 -75
l0 -96 -30 -11 c-25 -9 -30 -17 -30 -43 0 -30 -2 -32 -27 -24 -16 4 -50 8 -78
8 -47 1 -50 2 -47 26 2 14 7 29 12 33 10 11 46 -8 54 -28 8 -22 26 -9 26 18
-1 34 -33 65 -71 69 -28 2 -34 8 -37 28 -8 77 -12 88 -38 93 -58 11 -64 3 -64
-93 0 -110 -9 -120 -102 -120 -44 0 -67 -4 -70 -12 -3 -7 -6 -74 -7 -148 -2
-94 -7 -142 -16 -156 -8 -12 -15 -53 -17 -90 -2 -52 -7 -69 -17 -69 -25 0 -30
50 -32 290 -1 207 1 236 17 259 17 26 16 29 -4 79 -18 43 -22 73 -22 160 l0
107 -28 0 c-23 0 -32 7 -47 38 -10 20 -22 45 -26 54 -5 10 -9 20 -9 23 0 11
39 4 47 -7 8 -14 38 -34 63 -44 8 -3 29 -12 45 -19 70 -29 137 -45 194 -45 57
0 61 2 61 23 0 26 -24 77 -60 127 -42 59 -51 80 -40 100 12 23 13 137 1 144
-12 8 -21 -19 -21 -65 0 -26 -5 -42 -15 -45 -24 -10 -45 15 -45 53 0 31 -2 34
-27 31 -25 -3 -28 0 -26 25 1 16 -3 27 -11 27 -13 0 -76 58 -76 70 0 4 23 10
50 12 90 9 81 30 -15 36 -55 4 -68 8 -92 34 -36 37 -139 118 -151 118 -16 0
-42 -101 -42 -164 0 -33 9 -94 20 -135 11 -41 20 -78 20 -83 0 -5 -16 -24 -35
-44 -47 -47 -49 -99 -5 -155 28 -35 31 -44 28 -101 -3 -59 -5 -63 -28 -66 -16
-2 -41 8 -68 28 -23 16 -46 30 -51 30 -5 0 -14 7 -21 15 -23 28 -48 17 -72
-32 -23 -45 -34 -56 -70 -67 -14 -4 -18 -17 -18 -60 0 -43 -8 -70 -35 -123
-40 -78 -44 -108 -15 -123 19 -10 20 -21 20 -148 0 -75 -4 -143 -8 -149 -11
-17 -52 11 -52 35 0 9 -7 26 -15 36 -19 25 -21 311 -4 366 15 47 12 513 -4
549 -6 14 -24 42 -39 62 -15 20 -28 39 -28 42 0 3 -19 34 -43 69 -31 44 -46
78 -51 113 -3 28 -10 72 -15 100 -6 35 -5 61 5 89 23 65 19 89 -21 110 -34 18
-35 21 -35 77 0 40 4 58 14 62 12 5 12 12 2 42 -7 19 -18 41 -24 47 -7 7 -12
41 -12 78 0 62 2 68 33 96 43 40 90 64 122 64 25 0 26 -2 23 -42 -3 -38 -1
-42 27 -50 42 -13 210 0 254 19 39 17 108 50 148 72 34 18 16 35 -23 21 -16
-7 -67 -14 -114 -17 -69 -4 -96 -1 -140 15 -52 19 -55 23 -60 58 -7 51 -30 59
-135 44z m582 -1277 c-7 -66 -11 -72 -37 -48 -26 23 -25 55 1 89 30 38 43 23
36 -41z m61 -35 c-2 -13 -7 -23 -13 -23 -5 0 -11 10 -13 23 -2 15 2 22 13 22
11 0 15 -7 13 -22z m-2298 -218 c22 -22 27 -55 8 -46 -7 3 -21 9 -30 12 -19 7
-26 54 -8 54 6 0 19 -9 30 -20z m2787 -318 c7 -4 14 -19 15 -32 3 -22 -1 -25
-35 -28 -48 -4 -62 22 -26 49 27 21 29 22 46 11z m-3132 -500 c0 -31 -19 -28
-23 4 -3 18 0 25 10 22 7 -3 13 -14 13 -26z m-65 -39 c0 -19 -14 -16 -34 6
-24 27 -11 48 15 25 10 -9 19 -23 19 -31z m-80 -14 c0 -10 -4 -19 -9 -19 -12
0 -23 29 -15 41 8 14 24 0 24 -22z m-64 -44 c-3 -9 -10 -13 -16 -10 -12 7 -13
48 -3 59 11 11 27 -30 19 -49z m-138 -24 c19 -37 20 -51 0 -51 -4 0 -8 7 -8
15 0 8 -4 15 -9 15 -12 0 -24 37 -16 50 9 15 11 13 33 -29z m77 19 c7 -23 -2
-43 -16 -35 -12 8 -12 55 0 55 5 0 12 -9 16 -20z m235 -27 c0 -7 -11 -13 -24
-13 -13 0 -29 -7 -36 -15 -7 -8 -27 -15 -45 -15 -18 0 -38 -7 -45 -15 -7 -8
-22 -15 -34 -15 -12 0 -32 -7 -44 -16 -24 -16 -71 -16 -75 1 -1 6 14 11 33 13
19 2 39 10 43 18 4 8 19 14 31 14 13 0 27 7 30 16 4 10 14 14 26 11 12 -3 24
1 29 11 8 14 13 15 31 4 18 -11 21 -10 30 13 9 22 12 24 30 13 11 -7 20 -18
20 -25z m-637 -158 c17 -24 16 -45 -4 -45 -5 0 -9 7 -9 15 0 9 -7 18 -15 21
-18 7 -20 34 -2 34 6 0 20 -12 30 -25z m-133 -81 c0 -9 -5 -14 -12 -12 -18 6
-21 28 -4 28 9 0 16 -7 16 -16z m-393 -250 c3 -9 1 -57 -6 -108 -7 -50 -16
-147 -21 -215 -5 -68 -11 -125 -14 -128 -2 -3 -78 -4 -168 -4 -89 1 -168 -2
-175 -7 -8 -5 -12 -61 -14 -177 l-3 -170 155 -5 154 -5 0 -210 c0 -115 -3
-218 -7 -227 -7 -16 -23 -18 -148 -18 -113 0 -142 -3 -146 -14 -3 -8 -6 -187
-7 -397 l-2 -382 -40 -14 c-22 -8 -69 -18 -105 -23 -68 -9 -128 -21 -247 -48
-50 -11 -76 -13 -83 -6 -11 11 -15 2148 -4 2165 3 5 197 9 440 9 390 0 435 -2
441 -16z m6938 -46 c3 -18 5 -136 3 -263 l-3 -230 -160 -8 c-133 -6 -162 -10
-173 -25 -9 -12 -12 -52 -10 -142 l3 -125 145 -5 145 -5 0 -205 0 -205 -142
-3 -143 -3 0 -179 0 -180 168 -2 167 -3 0 -235 0 -235 -90 -3 c-49 -2 -157 4
-240 12 -82 8 -208 18 -280 21 -71 3 -146 9 -165 13 l-35 8 -3 976 c-2 790 0
978 11 986 7 6 91 16 187 21 96 6 204 15 240 21 36 5 103 10 150 11 47 0 105
4 130 8 83 15 89 14 95 -21z m-2521 -57 c3 -5 11 -410 17 -901 8 -687 8 -895
-2 -906 -7 -9 -31 -14 -68 -14 -30 0 -104 -7 -164 -16 -59 -9 -114 -13 -121
-11 -8 3 -23 27 -35 54 -12 26 -29 61 -36 76 -8 16 -15 37 -15 47 0 9 -7 23
-15 30 -8 7 -15 21 -15 30 0 10 -8 33 -17 52 -9 18 -22 45 -30 60 -7 14 -13
35 -13 46 0 11 -7 25 -15 32 -8 7 -15 18 -15 26 0 7 -7 30 -16 51 -9 21 -24
54 -32 73 -8 19 -20 44 -25 55 -6 11 -13 33 -16 49 -4 16 -12 31 -19 34 -15 5
-16 -321 -2 -508 9 -113 8 -126 -7 -138 -13 -9 -68 -12 -218 -10 l-200 3 0
849 0 849 50 18 c28 10 66 18 85 18 19 1 53 7 75 15 22 7 68 16 102 19 l62 7
21 -48 c12 -26 28 -60 36 -75 8 -16 14 -35 14 -42 0 -7 7 -27 15 -44 8 -17 22
-45 30 -62 8 -17 15 -37 15 -44 0 -7 8 -28 17 -47 9 -18 22 -45 30 -60 7 -14
13 -35 13 -46 0 -11 7 -25 15 -32 8 -7 15 -22 15 -34 0 -11 7 -30 15 -40 8
-11 15 -29 15 -40 0 -12 7 -30 15 -40 8 -11 15 -27 15 -37 0 -17 27 -46 35
-37 6 6 -11 295 -24 413 -5 50 -12 145 -15 213 l-5 122 214 0 c118 0 216 -4
219 -9z m-3674 -40 c19 -8 40 -16 45 -17 60 -21 181 -134 208 -194 4 -8 11
-22 16 -30 5 -8 12 -22 15 -30 3 -8 10 -22 15 -30 13 -23 32 -81 41 -125 5
-22 13 -56 18 -75 35 -123 35 -657 0 -780 -5 -19 -13 -53 -18 -75 -17 -86 -73
-205 -129 -276 -52 -67 -165 -149 -205 -149 -7 0 -27 -7 -42 -15 -42 -21 -252
-21 -319 1 -27 9 -57 20 -65 25 -8 5 -30 15 -48 24 -46 20 -136 115 -175 183
-48 86 -82 186 -97 287 -5 33 -14 80 -19 105 -13 57 -13 489 0 555 5 28 13 79
18 115 5 36 15 81 22 100 26 75 41 116 50 130 4 8 17 33 28 55 29 57 146 175
174 175 8 0 20 7 27 15 7 8 20 15 30 15 10 0 31 7 46 15 38 20 310 17 364 -4z
m1179 -4 c69 -28 162 -99 214 -163 49 -60 117 -189 117 -223 0 -10 7 -32 15
-47 22 -42 21 -277 -1 -353 -20 -69 -22 -72 -33 -91 -5 -8 -12 -22 -16 -30
-17 -42 -93 -147 -111 -154 -17 -7 -9 -80 12 -111 8 -11 14 -30 14 -42 0 -12
6 -37 14 -55 17 -42 35 -94 46 -133 11 -39 29 -91 46 -133 8 -18 14 -43 14
-55 0 -12 7 -31 15 -41 8 -11 15 -31 15 -46 0 -14 7 -36 16 -48 8 -12 14 -35
12 -50 l-3 -27 -110 -6 c-60 -3 -160 -12 -221 -19 -62 -7 -119 -10 -128 -7 -9
4 -16 18 -16 34 -1 15 -7 39 -15 53 -8 14 -14 39 -15 56 0 16 -4 34 -9 40 -6
5 -14 27 -20 49 -27 108 -34 132 -47 163 -8 18 -14 42 -14 53 0 12 -6 33 -14
47 -8 15 -18 40 -21 56 -16 73 -25 -13 -25 -235 0 -169 -3 -238 -12 -247 -9
-9 -73 -12 -225 -12 -200 0 -213 1 -223 19 -16 31 -14 1768 3 1775 6 2 163 4
347 3 293 -2 340 -5 379 -20z m586 8 c61 -8 144 -15 185 -15 41 -1 107 -5 145
-10 39 -5 149 -14 245 -20 146 -8 177 -13 188 -27 9 -13 12 -71 10 -233 l-3
-215 -125 -5 -125 -5 -3 -610 c-1 -335 -6 -613 -11 -618 -8 -8 -449 -13 -457
-4 -3 2 -4 291 -4 641 0 435 -3 643 -10 657 -10 18 -21 20 -113 19 -56 -1
-110 1 -119 5 -16 7 -18 27 -18 224 0 120 3 221 7 224 10 11 89 8 208 -8z
m2500 -935 l0 -895 -235 0 -235 0 -3 885 c-1 487 0 891 3 898 3 10 56 12 237
10 l233 -3 0 -895z m1063 641 c2 -146 -1 -218 -9 -227 -8 -10 -46 -14 -132
-16 l-122 -3 -5 -670 c-3 -369 -6 -671 -8 -672 -6 -7 -449 -2 -459 5 -10 6
-13 151 -15 648 l-3 639 -120 5 -120 5 -3 221 c-2 171 1 224 11 232 7 6 128
15 297 22 157 7 323 15 370 20 47 4 137 6 200 6 l115 -1 3 -214z"/>
<path d="M1595 1942 c-6 -4 -18 -37 -28 -74 -15 -58 -17 -117 -16 -455 0 -340
2 -397 18 -457 17 -65 43 -99 61 -80 4 5 16 32 26 59 18 46 19 83 19 485 0
427 0 436 -22 483 -21 45 -36 55 -58 39z"/>
<path d="M2727 1913 c-12 -11 -8 -483 4 -483 20 0 74 49 91 82 50 100 42 295
-16 361 -31 35 -66 53 -79 40z"/>
<path d="M5225 4467 c-11 -12 -20 -31 -20 -42 0 -14 -11 -23 -40 -31 -26 -8
-32 -13 -18 -13 13 -1 28 -9 34 -19 11 -18 13 -17 37 5 14 13 37 23 52 23 26
0 60 26 60 46 0 16 -47 54 -66 53 -11 0 -28 -10 -39 -22z"/>
<path d="M5572 3955 c-48 -16 -109 -57 -136 -93 -27 -36 -7 -43 96 -36 87 7
87 7 97 -19 13 -35 31 -44 31 -15 0 38 13 48 76 59 32 6 69 15 82 20 34 13 27
42 -16 61 -92 41 -152 47 -230 23z"/>
<path d="M6956 3333 c-32 -8 -66 -23 -75 -32 -29 -29 -51 -87 -51 -135 0 -44
1 -45 38 -51 20 -4 44 -9 52 -12 8 -3 23 -5 33 -4 18 2 23 -14 7 -24 -12 -8
-13 -52 -1 -59 5 -3 12 10 15 29 7 33 9 35 48 35 29 0 51 -8 76 -26 l34 -26
26 19 c48 36 66 69 65 121 -1 45 -5 53 -51 99 -45 45 -113 84 -145 82 -6 0
-38 -7 -71 -16z"/>
<path d="M6931 2921 c-39 -36 -49 -76 -28 -110 36 -61 101 -57 113 6 9 50 -3
99 -31 117 -22 15 -25 14 -54 -13z m47 -70 c2 -13 -1 -28 -6 -33 -13 -13 -34
25 -26 47 9 22 28 13 32 -14z"/>
</g>
</svg>
