<?xml version="1.0" standalone="no"?>
<!DOCTYPE svg PUBLIC "-//W3C//DTD SVG 20010904//EN"
 "http://www.w3.org/TR/2001/REC-SVG-20010904/DTD/svg10.dtd">
<svg version="1.0" xmlns="http://www.w3.org/2000/svg"
 width="900.000000pt" height="522.000000pt" viewBox="0 0 900.000000 522.000000"
 preserveAspectRatio="xMidYMid meet">
<metadata>
Created by potrace 1.10, written by Peter Selinger 2001-2011
</metadata>
<g transform="translate(0.000000,522.000000) scale(0.100000,-0.100000)"
fill="#000000" stroke="none">
<path d="M637 5206 c-3 -8 -35 -19 -74 -26 -64 -12 -71 -16 -125 -72 l-57 -60
0 -404 c0 -223 -3 -409 -6 -414 -9 -15 -49 -12 -71 5 -23 17 -74 19 -109 3
-19 -9 -31 -8 -49 1 -25 14 -66 7 -66 -11 0 -6 -10 -8 -24 -4 -30 7 -45 -12
-23 -29 19 -14 22 -41 7 -50 -6 -4 -17 -1 -25 5 -13 11 -15 -11 -15 -163 0
-166 1 -177 20 -187 11 -6 20 -17 20 -24 0 -30 29 -36 178 -39 83 -1 154 -6
159 -11 4 -4 8 -170 9 -369 0 -199 4 -387 8 -417 10 -73 10 -87 -4 -141 -7
-29 -9 -107 -7 -215 6 -213 7 -262 6 -316 -1 -13 -3 -194 -5 -403 -3 -209 -8
-383 -13 -388 -5 -5 -68 -10 -141 -13 -129 -4 -133 -5 -170 -34 -21 -16 -43
-30 -48 -30 -16 0 -16 -361 -1 -394 8 -16 33 -36 67 -52 52 -24 61 -26 156
-19 56 3 109 9 118 11 10 3 21 -3 28 -16 12 -22 14 -230 5 -505 -4 -132 -2
-157 16 -211 25 -76 74 -134 134 -157 63 -24 104 -29 320 -33 132 -2 357 -7
500 -10 237 -5 1223 -9 1270 -5 35 3 454 3 525 0 38 -1 114 18 118 30 5 16 39
14 65 -4 24 -15 38 -16 157 -12 177 7 160 3 160 38 0 39 23 34 30 -7 l5 -29
520 -7 c286 -3 534 -7 550 -8 51 -2 436 -4 515 -2 41 0 103 1 138 1 34 0 70 0
80 1 9 1 107 4 217 8 l200 7 0 25 c0 20 6 26 28 28 33 4 38 -23 5 -34 -17 -5
-19 -8 -6 -15 8 -4 426 -10 929 -13 503 -2 930 -7 951 -11 31 -6 37 -4 43 14
8 27 41 27 55 0 11 -19 18 -20 138 -15 227 9 355 22 395 40 59 26 119 95 140
160 16 49 18 93 16 407 -1 248 2 354 10 362 8 8 20 8 44 -3 46 -20 227 -22
249 -3 11 10 18 11 23 4 9 -16 22 -13 29 5 4 10 -1 22 -10 29 -11 7 -15 19
-11 29 5 14 14 16 37 11 l30 -7 0 170 0 170 -30 12 c-17 7 -33 22 -36 35 -8
31 -27 35 -195 35 -99 0 -149 4 -157 12 -15 15 -15 102 0 144 9 26 9 38 -1 58
-9 15 -11 37 -7 58 4 18 6 58 5 88 -3 61 -3 897 -1 1000 1 36 2 160 1 275 -1
116 2 231 6 257 6 38 4 49 -8 54 -13 4 -15 16 -10 54 3 27 2 57 -2 67 -10 22
-6 159 5 188 8 20 15 21 174 22 91 1 171 5 177 8 5 4 14 18 19 31 5 13 21 26
35 30 l25 6 0 174 c0 136 -3 174 -13 174 -7 0 -18 -5 -24 -11 -6 -6 -16 -8
-22 -5 -16 11 -13 43 5 50 21 8 12 31 -12 31 -10 1 -31 7 -47 15 -23 11 -31
11 -52 0 -19 -10 -30 -11 -50 -2 -35 16 -86 14 -109 -3 -25 -19 -66 -19 -92
-1 -16 12 -19 29 -21 118 -2 57 -5 121 -8 143 -4 22 -8 128 -11 234 -4 136
-10 205 -20 229 -8 19 -14 47 -14 62 0 22 -13 40 -57 79 -55 50 -59 51 -122
53 -37 1 -101 0 -143 -1 -57 -1 -84 2 -102 14 -18 12 -49 16 -132 15 -155 0
-244 9 -244 26 0 11 -27 14 -131 14 -123 0 -132 -1 -150 -22 l-19 -23 -6 23
c-5 18 -13 22 -45 22 -27 0 -39 -4 -39 -14 0 -20 -28 -28 -77 -20 -27 4 -43
11 -43 20 0 12 -74 14 -455 14 -407 0 -455 -2 -455 -16 0 -10 -7 -14 -17 -12
-10 2 -17 10 -16 16 2 7 -9 12 -27 12 -20 0 -30 -5 -30 -15 0 -8 -5 -15 -10
-15 -6 0 -13 7 -16 15 -10 24 -61 19 -67 -6 -6 -20 -10 -21 -75 -15 -39 4
-105 4 -147 0 -64 -6 -78 -10 -84 -27 -8 -20 -8 -20 -13 1 -6 21 -12 22 -117
22 -80 0 -111 -3 -111 -12 0 -9 -3 -9 -12 0 -17 17 -83 15 -98 -3 -17 -21 -52
-19 -97 5 -37 19 -58 19 -680 17 -662 -3 -685 -4 -654 -41 10 -12 8 -16 -8
-21 -30 -9 -43 2 -31 26 9 16 7 21 -14 29 -14 5 -178 7 -391 5 -367 -3 -407
-7 -377 -37 19 -19 14 -28 -12 -28 -29 0 -44 19 -26 30 32 20 -8 29 -143 30
-199 3 -218 2 -233 -11 -11 -9 -18 -8 -30 2 -12 10 -111 13 -466 14 -413 1
-451 2 -463 18 -12 17 -51 25 -40 8 11 -19 -30 -29 -99 -25 -73 5 -90 10 -81
25 11 17 -15 9 -35 -11 -17 -17 -32 -20 -121 -19 -90 1 -102 3 -106 20 -5 18
-21 19 -353 19 -286 0 -349 -2 -353 -14z m5253 -459 c0 -19 -21 -37 -42 -37
-38 0 -7 45 35 49 4 1 7 -5 7 -12z m-4815 -67 c6 -5 32 -4 59 1 33 6 63 5 90
-2 24 -7 133 -11 276 -10 129 0 728 3 1330 6 1299 5 1261 5 1470 0 154 -3
1627 -5 2923 -3 312 1 570 5 573 9 8 13 48 11 62 -3 8 -8 15 -8 26 1 12 10 20
9 40 -4 17 -11 35 -15 54 -10 18 4 33 1 39 -7 9 -11 17 -114 29 -363 3 -67 6
-729 3 -741 -1 -5 1 -22 6 -38 5 -18 4 -36 -3 -46 -6 -10 -8 -21 -4 -25 5 -5
11 -252 10 -445 0 -14 0 -34 0 -45 0 -11 0 -49 0 -85 0 -36 0 -245 0 -465 -2
-872 3 -1338 13 -1357 7 -14 7 -23 -2 -34 -8 -10 -9 -26 -2 -56 14 -62 10
-405 -5 -420 -8 -8 -56 -10 -154 -8 -120 3 -341 3 -438 1 -14 -1 -761 -1
-1660 -2 -899 0 -1638 -3 -1643 -6 -4 -3 -1 -13 7 -22 20 -21 12 -31 -25 -31
-29 0 -46 14 -29 25 5 3 10 13 10 21 0 12 -139 14 -1072 10 -590 -2 -1113 -6
-1163 -9 -250 -16 -343 -16 -349 -1 -7 19 -70 18 -86 -1 -16 -19 -37 -19 -56
0 -13 12 -55 15 -249 15 -151 0 -236 4 -240 10 -4 6 -9 72 -11 147 -6 147 -14
178 -45 168 -15 -5 -19 -2 -19 14 0 16 6 21 24 21 17 0 27 7 32 22 5 17 17
990 15 1333 0 22 0 72 0 110 0 39 -1 86 -2 105 -1 19 -1 82 0 140 0 58 1 125
1 150 0 25 1 72 3 105 7 176 0 690 -14 945 0 14 2 68 5 120 8 139 8 160 -2
173 -4 7 -14 31 -22 54 -11 35 -11 47 1 75 10 25 14 87 14 246 0 178 2 214 15
223 17 11 149 2 165 -11z m-615 -970 c0 -11 -4 -20 -10 -20 -5 0 -10 2 -10 4
0 2 -3 11 -6 20 -4 11 -1 16 10 16 9 0 16 -8 16 -20z m5761 -3563 c-13 -13
-26 -3 -16 12 3 6 11 8 17 5 6 -4 6 -10 -1 -17z m-2591 -51 c0 -8 -5 -18 -11
-22 -14 -8 -33 11 -25 25 10 16 36 13 36 -3z m2715 -26 c4 -6 -6 -10 -22 -10
-22 0 -25 2 -13 10 19 12 27 12 35 0z"/>
<path d="M6515 4200 c-96 -14 -180 -97 -206 -205 -13 -52 -24 -238 -23 -410 0
-170 15 -439 24 -450 7 -9 6 -16 -4 -24 -15 -12 -14 -53 2 -131 10 -46 8 -247
-3 -379 -3 -40 -1 -95 4 -122 9 -39 8 -57 -3 -82 -11 -26 -13 -138 -11 -582 2
-563 6 -620 43 -657 7 -7 12 -17 12 -23 0 -22 76 -84 128 -104 50 -20 72 -21
444 -21 449 0 464 2 549 78 48 43 60 67 38 74 -6 2 -9 13 -6 23 5 19 5 19 12
-2 8 -26 20 -29 32 -11 4 7 9 387 11 843 l3 830 -23 43 -23 42 -240 0 c-170
-1 -248 -4 -265 -13 -24 -12 -25 -19 -35 -142 -5 -72 -8 -158 -5 -193 5 -66 8
-70 77 -101 21 -10 33 -51 33 -116 -1 -16 0 -75 0 -130 0 -55 0 -115 0 -132 0
-18 0 -48 0 -65 1 -18 0 -69 0 -113 -2 -92 8 -246 15 -253 3 -3 14 3 26 14 20
18 21 18 39 -6 18 -23 18 -43 4 -88 -6 -20 -28 -9 -34 18 -3 13 -11 25 -17 27
-20 7 -25 -35 -7 -68 13 -25 14 -37 5 -51 -6 -10 -11 -24 -11 -32 0 -17 -47
-49 -54 -37 -3 4 -52 9 -108 10 -126 2 -145 4 -160 19 -8 8 -7 17 6 36 14 23
16 99 16 833 -1 1112 -3 1279 -20 1331 -10 31 -10 48 -2 66 10 23 15 24 149
28 125 4 192 -3 194 -20 0 -4 2 -57 3 -119 2 -78 6 -116 16 -128 12 -15 12
-19 -3 -30 -53 -39 19 -56 217 -52 158 3 159 3 168 27 6 14 10 108 10 210 -1
102 4 231 10 287 9 84 8 106 -3 119 -7 9 -18 25 -24 37 -17 34 -81 79 -127 89
-48 10 -810 18 -873 8z m974 -242 c0 -25 -17 -71 -18 -52 -1 6 -4 26 -7 43 -5
24 -3 31 10 31 10 0 16 -8 15 -22z m1 -2535 c0 -7 -4 -13 -10 -13 -5 0 -10 12
-10 28 0 21 2 24 10 12 5 -8 10 -21 10 -27z m-447 -15 c8 -30 -15 -46 -42 -29
-10 7 -11 13 -2 30 15 27 37 27 44 -1z"/>
<path d="M4810 4190 l-45 -5 -3 -409 c-2 -370 -1 -411 14 -428 15 -15 15 -24
5 -57 -6 -22 -14 -89 -18 -150 -5 -97 -4 -111 10 -117 38 -14 10 -94 -33 -94
-22 0 -35 -16 -20 -25 17 -11 11 -35 -9 -35 -25 0 -29 -20 -30 -175 -1 -121 0
-133 24 -179 14 -27 32 -57 40 -66 13 -14 15 -110 19 -671 3 -360 5 -672 5
-695 0 -49 23 -74 51 -57 12 8 21 8 28 1 17 -17 635 -17 811 -1 155 15 187 26
243 85 35 36 41 49 67 124 14 44 18 74 14 110 -3 27 -5 58 -3 69 1 11 4 249 6
530 5 561 2 594 -47 641 -17 16 -40 45 -52 64 -12 19 -33 44 -46 56 -26 22
-22 44 8 44 33 0 74 71 86 147 4 27 11 54 17 60 6 8 8 45 4 95 -4 46 -6 113
-5 151 0 37 -5 83 -11 102 -9 27 -8 40 5 65 14 27 16 77 14 372 l-1 342 -25
32 c-13 18 -44 42 -67 54 -41 20 -61 20 -527 23 -266 1 -504 0 -529 -3z m675
-446 c13 -20 14 -32 7 -52 -6 -16 -9 -175 -8 -393 1 -360 1 -366 -20 -382 -26
-19 -130 -21 -138 -1 -3 7 -22 14 -43 16 l-38 3 -7 135 c-8 161 -9 173 -26
192 -10 13 -9 18 3 28 11 9 16 31 16 69 0 101 10 386 14 399 3 8 35 12 114 12
106 0 109 -1 126 -26z m-148 -1275 c6 -6 35 -11 65 -12 29 0 59 -4 66 -10 9
-7 12 -82 12 -314 0 -267 2 -308 17 -333 14 -24 14 -31 3 -45 -9 -11 -15 -53
-18 -122 -3 -92 -1 -106 15 -118 16 -12 16 -15 2 -32 -9 -10 -19 -26 -22 -36
-5 -15 -16 -16 -75 -12 -38 2 -73 5 -78 6 -5 1 -17 -1 -26 -5 -22 -10 -77 30
-85 62 -3 14 1 48 10 76 13 42 16 114 16 426 0 206 0 389 0 407 1 24 8 36 34
51 38 24 49 26 64 11z m225 -754 c-6 -34 -12 -32 -12 6 0 16 4 28 9 25 4 -3 6
-17 3 -31z m30 -97 c-13 -13 -24 5 -16 27 7 16 8 16 17 0 6 -11 6 -20 -1 -27z"/>
<path d="M1481 4169 c-11 -18 -12 -63 -5 -238 10 -255 10 -255 2 -394 -5 -91
-4 -108 8 -103 48 18 61 -50 18 -95 l-27 -28 -1 -259 -1 -260 -24 -19 c-33
-27 -48 -122 -46 -282 l2 -123 40 -37 c23 -20 46 -46 53 -59 10 -21 9 -24 -9
-29 -20 -5 -26 -16 -21 -38 1 -5 3 -44 4 -85 1 -59 4 -75 16 -76 30 -1 60 -16
60 -29 0 -21 -19 -28 -35 -15 -12 10 -16 9 -19 -1 -11 -32 -17 -174 -20 -517
l-5 -363 32 -52 c18 -29 36 -55 42 -59 5 -4 68 -7 140 -6 71 0 135 -1 140 -2
6 -2 33 0 62 5 50 7 53 9 77 59 17 33 26 68 26 101 1 99 -8 293 -15 333 -4 23
-3 47 1 54 8 13 17 93 16 136 -2 36 -2 81 0 100 1 9 -5 109 -12 222 -14 223
-14 260 0 274 5 5 141 11 302 13 233 4 296 8 309 19 8 8 24 14 35 14 24 0 81
53 89 83 4 12 12 36 19 52 10 23 13 199 12 805 -1 735 -2 777 -20 809 -26 48
-45 66 -91 86 -36 16 -95 18 -590 22 l-550 5 -14 -23z m742 -431 c15 -8 17
-23 15 -121 -3 -197 3 -691 9 -714 5 -24 25 -33 22 -10 -3 26 1 39 13 35 8 -3
13 -28 14 -64 2 -68 -2 -80 -22 -63 -21 17 -42 -4 -25 -25 18 -21 -1 -28 -58
-20 -27 3 -56 2 -66 -3 -10 -6 -38 -6 -68 -2 -39 6 -59 17 -84 43 l-33 34 26
31 27 32 -7 277 c-14 544 -14 544 8 570 19 22 25 23 116 16 52 -4 103 -11 113
-16z m-285 -939 c-2 -6 -8 -10 -13 -10 -5 0 -11 4 -13 10 -2 6 4 11 13 11 9 0
15 -5 13 -11z m125 -94 c1 -5 -6 -11 -15 -13 -11 -2 -18 3 -18 13 0 17 30 18
33 0z"/>
<path d="M3089 4163 c-11 -29 -11 -424 1 -443 5 -8 9 -9 14 -1 15 23 37 12 34
-16 -2 -21 -8 -27 -22 -25 -10 2 -23 -2 -27 -10 -7 -11 -14 -1035 -14 -2148 0
-319 8 -372 70 -438 65 -71 65 -71 315 -67 124 2 255 9 291 14 49 7 86 5 138
-5 63 -11 78 -11 117 2 34 11 49 12 66 3 24 -13 109 -7 172 11 49 15 120 87
140 143 20 58 30 219 26 427 -1 41 1 127 4 190 13 282 16 494 15 1065 -1 336
-1 668 0 739 0 96 -3 134 -13 145 -24 29 -27 78 -6 130 17 44 17 50 3 71 -10
15 -14 35 -10 62 3 22 3 55 0 74 -5 33 -7 34 -43 28 -35 -6 -39 -4 -42 17 -3
24 -3 24 -165 27 -154 2 -163 1 -175 -18 -7 -11 -20 -20 -30 -20 -12 0 -18
-12 -23 -42 -4 -24 -4 -367 -1 -763 5 -706 6 -784 20 -1034 5 -99 4 -127 -8
-140 -26 -30 -29 -59 -7 -78 25 -20 27 -46 6 -63 -11 -9 -14 -52 -15 -232 0
-121 -3 -238 -6 -259 -8 -48 -37 -79 -74 -79 -34 0 -45 13 -25 30 25 21 7 30
-59 30 -49 0 -68 -5 -86 -20 -30 -26 -42 -25 -79 6 -30 25 -31 29 -31 101 0
41 4 83 10 93 6 11 6 36 1 66 -7 34 -5 63 5 103 12 42 14 104 10 275 -2 122
-4 232 -3 246 1 39 0 870 -2 1315 -2 400 -6 455 -37 455 -8 0 -32 13 -54 29
l-39 28 -176 1 -176 0 -10 -25z"/>
</g>
</svg>
