<?xml version="1.0" standalone="no"?>
<!DOCTYPE svg PUBLIC "-//W3C//DTD SVG 20010904//EN"
 "http://www.w3.org/TR/2001/REC-SVG-20010904/DTD/svg10.dtd">
<svg version="1.0" xmlns="http://www.w3.org/2000/svg"
 width="900.000000pt" height="306.000000pt" viewBox="0 0 900.000000 306.000000"
 preserveAspectRatio="xMidYMid meet">
<metadata>
Created by potrace 1.10, written by Peter Selinger 2001-2011
</metadata>
<g transform="translate(0.000000,306.000000) scale(0.100000,-0.100000)"
fill="#000000" stroke="none">
<path d="M4334 2987 c-42 -20 -102 -93 -115 -141 -6 -22 -9 -67 -7 -100 l3
-61 -50 3 c-143 7 -247 -142 -248 -355 0 -56 -4 -96 -11 -102 -6 -4 -29 -11
-50 -14 -22 -4 -43 -12 -48 -19 -4 -7 -8 -44 -8 -83 0 -38 -5 -90 -11 -114
-12 -54 -5 -79 27 -92 25 -9 25 -9 8 -38 -16 -27 -16 -38 -6 -108 17 -111 15
-151 -8 -180 -22 -29 -26 -98 -10 -171 8 -32 6 -68 -7 -145 -9 -56 -16 -126
-14 -156 1 -46 -3 -63 -32 -110 -69 -113 -95 -167 -101 -216 -4 -27 -18 -68
-30 -90 -31 -54 -38 -87 -25 -124 11 -32 11 -33 -30 -196 -25 -97 -26 -143 -5
-173 14 -20 24 -22 99 -22 98 0 121 13 110 64 -25 118 -12 216 36 271 45 51
120 229 126 300 5 54 12 68 62 135 72 95 80 110 81 140 0 48 88 240 109 240 4
0 22 -11 41 -25 19 -14 40 -25 47 -25 7 0 34 -29 60 -65 27 -37 62 -85 78
-108 22 -30 42 -45 70 -53 40 -11 40 -11 43 -64 2 -29 -2 -58 -7 -63 -21 -21
-1 -260 27 -313 19 -37 23 -161 7 -206 -8 -24 -18 -66 -21 -95 -7 -58 -8 -57
81 -66 22 -2 83 -10 136 -17 107 -14 207 -7 216 16 14 36 -7 63 -74 96 -112
55 -151 137 -127 268 6 36 12 108 12 160 0 52 5 119 11 149 6 29 11 75 11 101
0 51 -25 146 -44 170 -7 8 -21 38 -31 65 -34 94 -104 227 -156 292 -78 99 -86
153 -24 153 46 0 72 35 79 108 20 209 20 214 -13 256 -23 29 -28 42 -21 52 9
10 31 3 104 -32 124 -59 164 -59 233 -4 50 39 66 65 78 128 4 18 18 43 31 56
22 19 23 26 14 50 -22 59 -13 98 35 149 l44 47 118 0 c88 1 123 4 137 15 16
12 54 15 177 15 160 0 184 5 158 36 -10 13 -31 14 -126 8 l-114 -7 -29 34
c-19 22 -29 45 -30 67 0 42 -21 38 -34 -6 l-9 -32 -284 0 c-296 0 -331 5 -346
45 -9 22 -26 18 -36 -8 -18 -47 -123 -64 -129 -21 -2 14 8 29 33 48 33 26 35
30 35 86 0 95 -27 143 -105 182 -51 27 -158 34 -201 15z m549 -544 c8 -13 -39
-88 -54 -88 -23 0 -23 42 -1 49 11 4 22 16 25 26 5 20 22 27 30 13z"/>
<path d="M312 2217 c-64 -24 -157 -105 -178 -156 -40 -92 -43 -133 -44 -573 0
-450 4 -495 46 -579 24 -49 95 -118 148 -145 93 -48 112 -49 631 -49 519 0
542 2 635 50 82 42 185 198 178 269 l-3 31 -608 3 -608 2 -9 26 c-13 34 -13
754 0 788 l10 26 590 0 c389 0 598 4 611 10 27 15 24 50 -12 125 -43 86 -107
144 -199 178 -41 15 -103 17 -590 16 -524 -1 -547 -2 -598 -22z"/>
<path d="M1956 2211 c-78 -39 -121 -83 -159 -161 -32 -65 -32 -66 -35 -249 -3
-170 -2 -189 19 -243 27 -74 97 -152 170 -192 l54 -30 502 -2 c598 -4 568 2
578 -99 9 -84 0 -154 -23 -171 -14 -11 -138 -13 -640 -14 -610 0 -662 -2 -662
-31 0 -23 70 -156 99 -186 16 -18 51 -45 78 -61 93 -55 122 -57 668 -57 544 0
573 3 668 59 133 77 187 205 187 436 -1 218 -59 329 -215 413 -39 22 -51 22
-550 27 -377 4 -516 8 -531 17 -30 17 -44 64 -44 144 0 61 3 70 26 88 26 21
35 21 645 21 600 0 618 1 624 19 14 46 -27 130 -100 205 -100 103 -50 96 -717
96 l-583 0 -59 -29z"/>
<path d="M5740 2211 c-79 -15 -170 -83 -207 -154 -46 -89 -47 -109 -46 -570 1
-304 5 -454 13 -488 25 -105 90 -187 183 -233 l54 -26 595 0 596 0 58 31 c77
40 105 68 145 143 l34 61 3 295 c3 250 1 298 -11 315 -15 19 -29 20 -532 23
-379 2 -521 -1 -531 -9 -20 -17 -17 -57 8 -98 43 -70 104 -116 189 -142 53
-16 93 -19 300 -19 131 0 240 -3 240 -7 1 -5 2 -70 3 -146 2 -97 -1 -141 -10
-148 -17 -14 -966 -14 -993 1 -21 11 -21 16 -21 439 l0 428 25 11 c19 9 201
12 663 12 665 0 662 0 662 42 0 55 -100 176 -181 220 l-44 23 -580 1 c-319 1
-596 -1 -615 -5z"/>
<path d="M7579 2211 c-80 -16 -166 -85 -214 -173 l-30 -53 -3 -450 c-2 -247
-1 -478 3 -511 11 -110 94 -215 207 -266 37 -17 85 -18 593 -18 531 0 554 1
598 20 62 28 137 98 172 162 l30 53 0 505 0 505 -23 44 c-30 56 -107 133 -163
163 l-44 23 -545 2 c-300 0 -561 -2 -581 -6z m1031 -281 c19 -19 20 -33 20
-448 0 -371 -2 -431 -16 -450 l-15 -22 -461 0 c-415 0 -463 2 -480 17 -17 15
-18 42 -18 450 0 420 1 434 20 453 19 19 33 20 475 20 442 0 456 -1 475 -20z"/>
</g>
</svg>
