<?xml version="1.0" standalone="no"?>
<!DOCTYPE svg PUBLIC "-//W3C//DTD SVG 20010904//EN"
 "http://www.w3.org/TR/2001/REC-SVG-20010904/DTD/svg10.dtd">
<svg version="1.0" xmlns="http://www.w3.org/2000/svg"
 width="900.000000pt" height="306.000000pt" viewBox="0 0 900.000000 306.000000"
 preserveAspectRatio="xMidYMid meet">
<metadata>
Created by potrace 1.10, written by Peter Selinger 2001-2011
</metadata>
<g transform="translate(0.000000,306.000000) scale(0.100000,-0.100000)"
fill="#000000" stroke="none">
<path d="M0 1530 l0 -1530 4500 0 4500 0 0 1530 0 1530 -4500 0 -4500 0 0
-1530z m4535 1442 c78 -39 105 -87 105 -181 0 -55 -2 -60 -36 -86 -24 -19 -34
-33 -32 -48 6 -44 111 -28 129 20 8 23 29 32 29 13 0 -6 15 -19 33 -30 30 -19
51 -20 319 -20 l287 0 9 32 c11 44 32 48 32 6 1 -22 11 -45 30 -67 l29 -34
114 7 c95 6 116 5 126 -8 26 -31 2 -36 -158 -36 -123 0 -161 -3 -177 -15 -14
-11 -49 -14 -137 -15 l-118 0 -44 -47 c-48 -51 -57 -90 -35 -149 9 -24 8 -31
-14 -50 -13 -13 -27 -38 -31 -56 -12 -63 -28 -89 -78 -128 -66 -53 -109 -54
-215 -3 -42 20 -85 40 -94 44 -10 5 -21 3 -28 -5 -8 -11 -5 -21 13 -42 36 -43
38 -59 27 -195 -12 -144 -25 -172 -83 -177 -66 -6 -59 -51 23 -156 44 -57 140
-231 140 -256 0 -13 32 -82 46 -100 19 -24 44 -120 44 -170 0 -26 -5 -72 -11
-101 -6 -30 -11 -97 -11 -149 0 -52 -6 -125 -14 -162 -25 -125 18 -214 130
-267 62 -29 76 -44 76 -81 0 -13 -11 -22 -37 -29 -51 -15 -87 -14 -233 5 -191
24 -174 16 -166 78 3 29 13 70 21 90 12 28 14 55 9 114 -4 42 -11 85 -16 96
-27 51 -49 291 -29 312 14 13 21 88 11 104 -5 8 -26 19 -47 25 -26 7 -47 23
-68 52 -16 23 -51 71 -78 108 -26 36 -53 65 -60 65 -7 0 -28 11 -47 25 -19 14
-37 25 -41 25 -22 0 -109 -193 -109 -241 0 -14 -10 -40 -22 -57 -13 -17 -44
-60 -69 -94 -39 -54 -47 -72 -52 -123 -6 -70 -83 -254 -123 -296 -48 -50 -68
-175 -42 -260 10 -34 9 -42 -7 -59 -15 -17 -31 -20 -101 -20 -74 0 -84 2 -98
22 -26 37 -21 81 28 263 11 39 14 74 10 100 -11 57 -6 79 27 141 16 31 29 72
29 91 0 34 14 64 92 194 34 58 39 74 37 120 -1 30 5 98 14 151 13 80 14 113 5
192 -11 92 -11 97 10 126 25 34 27 70 10 183 -10 70 -10 81 6 108 17 29 17 29
-8 38 -32 13 -39 38 -27 92 6 24 11 76 11 116 0 63 3 74 22 87 12 9 34 16 49
16 15 0 31 6 37 13 5 6 10 53 10 102 1 211 105 360 247 353 l50 -3 -3 61 c-2
33 1 78 7 100 13 48 73 121 115 141 43 19 150 12 201 -15z m-3039 -750 c97
-34 158 -88 204 -180 35 -71 38 -107 11 -122 -13 -6 -222 -10 -611 -10 l-590
0 -10 -26 c-13 -34 -13 -754 0 -788 l9 -26 608 -2 608 -3 3 -31 c7 -74 -98
-228 -184 -272 -87 -43 -144 -47 -639 -47 -492 0 -510 1 -610 46 -56 24 -132
94 -156 143 -45 90 -48 127 -48 581 0 453 3 495 47 581 29 56 110 127 174 151
51 20 76 21 593 22 494 1 545 -1 591 -17z m1726 -3 c82 -42 183 -168 189 -235
5 -70 67 -64 -620 -64 -610 0 -619 0 -645 -21 -23 -18 -26 -27 -26 -88 0 -80
14 -127 44 -144 15 -9 154 -13 531 -17 499 -5 511 -5 550 -27 111 -59 174
-138 200 -250 28 -117 14 -347 -28 -443 -22 -50 -91 -126 -143 -156 -95 -56
-124 -59 -669 -59 -405 0 -511 3 -560 15 -119 29 -197 93 -250 206 -19 41 -35
79 -35 84 0 27 57 30 662 30 499 0 628 3 642 13 23 17 31 83 21 172 -10 101
19 96 -579 99 l-501 3 -45 24 c-73 38 -153 125 -179 195 -21 57 -22 74 -19
245 3 183 3 184 35 249 38 78 81 122 159 161 l59 29 583 0 c571 0 584 0 624
-21z m3757 -27 c82 -44 181 -167 181 -224 0 -38 -8 -38 -662 -38 -462 0 -644
-3 -663 -12 l-25 -11 0 -428 0 -428 22 -12 c29 -16 973 -15 992 0 10 8 13 47
11 148 -1 76 -3 141 -4 146 0 4 -109 7 -240 7 -207 0 -247 3 -300 19 -85 26
-146 72 -189 142 -28 46 -29 85 -2 99 13 7 184 10 531 8 497 -3 511 -4 526
-23 12 -17 14 -65 11 -315 l-3 -295 -34 -61 c-41 -77 -69 -104 -148 -143 l-62
-31 -591 0 c-576 0 -592 1 -637 21 -57 26 -126 89 -156 144 -45 80 -48 117
-50 581 -1 462 1 483 46 571 37 71 123 135 207 153 19 5 296 7 615 7 l580 -2
44 -23z m1771 -2 c58 -31 129 -103 160 -160 l25 -45 0 -505 0 -505 -24 -44
c-32 -62 -118 -144 -175 -170 -48 -21 -59 -21 -601 -21 -531 0 -554 1 -598 20
-62 28 -137 98 -172 162 l-30 53 0 505 0 505 23 43 c48 90 141 167 221 183 20
4 281 6 581 6 l545 -2 45 -25z"/>
<path d="M4853 2430 c-3 -11 -11 -20 -18 -20 -7 0 -18 -6 -24 -13 -13 -16 10
-54 26 -44 16 10 53 84 46 91 -12 12 -25 6 -30 -14z"/>
<path d="M7660 1930 c-19 -19 -20 -33 -20 -454 0 -382 2 -436 16 -450 14 -14
71 -16 479 -16 l464 0 15 22 c14 19 16 79 16 448 0 369 -2 429 -16 448 l-15
22 -460 0 c-446 0 -460 -1 -479 -20z"/>
</g>
</svg>
