<?xml version="1.0" standalone="no"?>
<!DOCTYPE svg PUBLIC "-//W3C//DTD SVG 20010904//EN"
 "http://www.w3.org/TR/2001/REC-SVG-20010904/DTD/svg10.dtd">
<svg version="1.0" xmlns="http://www.w3.org/2000/svg"
 width="900.000000pt" height="900.000000pt" viewBox="0 0 900.000000 900.000000"
 preserveAspectRatio="xMidYMid meet">
<metadata>
Created by potrace 1.10, written by Peter Selinger 2001-2011
</metadata>
<g transform="translate(0.000000,900.000000) scale(0.100000,-0.100000)"
fill="#000000" stroke="none">
<path d="M3663 8418 c-19 -10 -38 -17 -42 -16 -16 3 -60 -15 -65 -28 -3 -8
-13 -14 -21 -14 -17 0 -92 -57 -129 -99 -11 -13 -42 -46 -68 -73 -27 -27 -48
-53 -48 -57 0 -4 -13 -27 -30 -49 -16 -23 -30 -50 -30 -61 0 -10 -6 -21 -13
-24 -17 -6 -77 -128 -77 -155 0 -11 -7 -22 -15 -26 -10 -3 -15 -19 -15 -45 0
-22 -5 -43 -11 -46 -6 -4 -8 -13 -5 -20 3 -8 -3 -31 -13 -51 -11 -21 -17 -43
-14 -50 2 -7 0 -15 -6 -19 -6 -3 -11 -30 -11 -59 0 -33 -5 -58 -14 -65 -12
-10 -28 -121 -27 -195 0 -16 -4 -35 -9 -41 -5 -6 -10 -49 -12 -95 -3 -83 -4
-85 -28 -85 -16 0 -26 7 -30 20 -3 11 -16 33 -30 49 -50 57 -161 166 -169 166
-5 0 -11 7 -15 15 -3 8 -15 15 -26 15 -12 0 -35 7 -52 16 -47 24 -151 24 -233
-2 -38 -12 -71 -27 -73 -33 -2 -6 -8 -11 -13 -11 -16 0 -133 -127 -154 -167
-11 -21 -25 -42 -32 -46 -7 -4 -13 -23 -13 -40 0 -20 -8 -39 -20 -50 -11 -9
-21 -25 -21 -34 -3 -44 -19 -96 -34 -108 -7 -6 -15 -41 -17 -77 -3 -37 -10
-73 -15 -80 -20 -24 -26 -63 -43 -258 -5 -63 -10 -122 -11 -130 -1 -8 0 -40 1
-70 2 -31 -2 -65 -8 -76 -8 -15 -8 -24 0 -32 9 -9 8 -18 -2 -36 -12 -24 -18
-25 -129 -29 -64 -2 -129 -8 -146 -12 -27 -7 -175 -17 -455 -29 -114 -6 -290
-28 -309 -40 -4 -3 -41 -6 -82 -7 -41 -1 -87 -7 -104 -14 -55 -23 -98 -34
-106 -29 -4 2 -23 -4 -43 -15 -19 -11 -54 -23 -78 -26 -44 -6 -162 -58 -186
-82 -7 -7 -19 -13 -27 -13 -12 0 -55 -61 -55 -78 0 -12 58 -31 82 -27 42 7 93
22 116 34 20 11 55 16 172 26 19 2 60 8 90 14 30 7 66 14 80 17 55 11 93 12
114 4 12 -4 29 -4 38 1 9 5 74 11 144 13 71 3 135 5 142 5 6 1 18 1 25 1 6 -1
28 2 47 6 19 3 44 5 55 4 22 -2 116 -1 428 1 194 2 198 2 213 -20 9 -12 14
-31 11 -41 -2 -10 2 -42 10 -71 8 -30 17 -63 20 -74 2 -11 7 -58 10 -105 3
-47 9 -90 14 -95 13 -17 40 -105 35 -114 -5 -7 7 -62 22 -101 6 -17 9 -28 18
-80 4 -19 10 -40 15 -45 7 -9 16 -40 34 -120 3 -11 14 -32 25 -47 13 -18 20
-43 20 -73 0 -31 5 -47 15 -51 10 -4 15 -20 15 -44 0 -21 7 -43 15 -50 8 -7
15 -18 15 -25 0 -8 6 -26 14 -42 8 -15 23 -46 34 -68 10 -22 30 -70 42 -108
l24 -67 -22 -20 c-12 -12 -22 -25 -22 -30 0 -5 -9 -17 -19 -27 -10 -10 -34
-47 -52 -83 -19 -36 -37 -67 -41 -70 -4 -3 -24 -37 -44 -75 -20 -39 -43 -74
-50 -78 -8 -4 -14 -17 -14 -27 0 -21 -52 -124 -76 -151 -8 -8 -14 -24 -14 -34
0 -21 -38 -85 -51 -85 -5 0 -9 -11 -9 -24 0 -14 -4 -27 -8 -30 -15 -9 -82
-145 -82 -166 0 -11 -4 -20 -10 -20 -11 0 -50 -72 -50 -93 0 -8 -7 -20 -15
-27 -8 -7 -15 -23 -15 -35 0 -13 -7 -25 -15 -29 -8 -3 -15 -18 -15 -33 0 -16
-6 -37 -13 -48 -15 -22 -47 -116 -47 -138 0 -8 -6 -17 -14 -20 -12 -5 -24 -43
-28 -87 0 -8 -4 -19 -8 -25 -8 -11 -22 -74 -26 -115 -3 -39 -24 -114 -35 -125
-5 -5 -9 -99 -9 -215 1 -164 4 -209 15 -224 8 -11 15 -28 15 -38 0 -23 57
-146 76 -165 8 -8 14 -20 14 -26 0 -15 65 -87 78 -87 6 0 12 -6 15 -12 3 -7
22 -22 43 -33 22 -11 43 -25 47 -32 4 -7 15 -13 23 -13 9 0 30 -6 47 -14 78
-35 256 -55 392 -44 174 13 190 15 235 28 61 18 68 20 119 26 24 3 54 12 65
19 12 7 41 16 66 20 25 4 67 18 93 31 27 13 56 24 66 24 9 0 53 18 97 40 43
22 94 43 112 46 17 3 32 9 32 13 0 9 55 41 69 41 13 0 14 -24 2 -48 -42 -87
-65 -153 -76 -219 -4 -24 -11 -45 -16 -49 -15 -9 -10 -98 6 -120 8 -10 15 -32
15 -49 0 -35 49 -136 82 -171 13 -13 31 -24 41 -24 10 0 20 -7 23 -15 4 -8 10
-15 15 -15 5 0 38 -13 72 -30 63 -29 67 -30 221 -30 114 0 164 4 184 14 15 7
47 17 72 21 25 3 63 15 85 24 22 10 58 22 80 26 22 4 46 12 53 18 8 6 37 19
65 29 28 10 55 25 60 33 4 8 16 15 26 15 17 0 114 47 156 76 11 8 27 14 36 14
9 0 19 7 23 15 3 8 13 15 23 15 10 0 29 9 43 20 14 11 31 20 38 20 18 0 91
-80 98 -107 3 -12 12 -24 20 -27 8 -3 14 -14 14 -25 0 -11 14 -33 30 -49 17
-17 30 -40 30 -51 0 -12 4 -21 9 -21 5 0 13 -10 16 -22 4 -13 21 -35 37 -51
16 -15 44 -49 62 -75 29 -44 53 -73 101 -126 11 -12 42 -57 69 -99 27 -42 53
-77 58 -77 4 0 8 -7 8 -15 0 -8 3 -15 8 -15 4 0 18 -17 32 -38 27 -40 39 -55
122 -146 29 -32 60 -68 68 -81 22 -32 116 -125 126 -125 5 0 32 -20 59 -45 28
-25 55 -45 60 -45 6 0 27 -11 47 -25 44 -30 93 -33 107 -6 10 19 -2 42 -43 81
-10 10 -22 22 -27 26 -5 5 -28 32 -53 59 -24 28 -65 73 -90 100 -25 28 -49 60
-52 73 -3 12 -10 22 -14 22 -5 0 -18 17 -31 37 -12 21 -34 49 -48 63 -14 14
-34 41 -45 60 -10 19 -24 40 -30 45 -7 6 -16 17 -20 25 -16 33 -86 141 -100
155 -13 12 -52 79 -72 122 -8 18 -19 33 -24 33 -6 0 -10 5 -10 11 0 6 -13 31
-30 56 -16 24 -30 50 -30 58 0 8 -6 18 -13 22 -7 4 -27 37 -45 73 -19 36 -39
70 -45 75 -7 6 -21 29 -31 52 -10 23 -25 44 -32 47 -8 3 -14 15 -14 26 0 12
-9 30 -20 42 -11 12 -20 29 -20 39 0 15 72 99 86 99 3 0 19 13 37 30 18 16 36
30 40 30 12 0 67 52 321 306 226 226 272 274 354 379 26 33 59 72 75 87 15 15
27 33 27 40 0 8 8 21 18 29 9 9 31 32 47 51 l31 35 454 8 c250 4 471 9 490 11
59 6 122 12 188 18 34 3 67 8 73 11 5 4 49 9 97 12 48 3 96 10 107 16 28 15
94 28 135 27 19 0 62 9 95 21 33 12 78 23 100 26 22 3 76 22 120 42 44 21 91
41 105 45 43 13 152 70 157 84 3 6 11 12 18 12 7 0 15 7 19 15 3 8 13 15 22
15 21 0 154 133 154 153 0 9 6 20 13 24 15 10 42 67 51 110 4 18 12 35 17 38
12 8 12 268 0 281 -9 8 -15 30 -36 117 -6 26 -48 110 -62 125 -7 7 -13 19 -13
25 0 7 -14 30 -30 51 -17 22 -30 46 -30 53 0 7 -4 13 -8 13 -4 0 -16 14 -26
30 -20 35 -85 108 -164 184 -30 28 -75 72 -100 97 -26 25 -64 55 -84 68 -21
12 -38 27 -38 32 0 5 -7 9 -15 9 -8 0 -15 4 -15 9 0 5 -20 21 -45 35 -25 15
-45 31 -45 36 0 6 -6 10 -14 10 -8 0 -16 7 -20 15 -3 8 -15 15 -26 15 -11 0
-23 7 -26 15 -4 8 -12 15 -20 15 -8 0 -14 4 -14 9 0 5 -14 14 -32 20 -47 17
-21 35 55 39 115 5 153 15 262 69 50 24 95 51 101 59 6 8 16 14 23 14 6 0 11
3 11 8 0 4 12 20 27 36 32 34 59 86 69 129 16 70 4 194 -22 232 -8 11 -14 29
-14 41 0 12 -7 27 -15 34 -8 7 -15 20 -15 29 0 9 -14 31 -30 50 -17 18 -30 40
-30 48 0 7 -7 16 -15 19 -8 4 -15 10 -15 15 0 5 -8 17 -17 28 -10 10 -29 33
-43 51 -43 57 -104 116 -142 139 -21 12 -38 27 -38 32 0 5 -5 9 -10 9 -6 0
-30 20 -53 45 -24 25 -51 45 -60 45 -9 0 -20 6 -24 13 -4 6 -25 21 -47 32 -21
11 -41 25 -43 32 -3 7 -11 13 -18 13 -6 0 -30 13 -52 29 -22 16 -49 32 -61 35
-12 4 -22 12 -22 17 0 5 -9 9 -20 9 -11 0 -29 9 -39 19 -19 19 -19 21 18 98
21 43 42 88 45 101 4 12 12 22 17 22 5 0 9 14 9 30 0 17 4 30 10 30 11 0 50
72 50 93 0 8 7 20 15 27 8 7 15 21 15 32 0 11 11 38 24 61 13 23 29 59 36 80
6 20 16 37 21 37 5 0 9 8 9 18 0 10 7 27 15 38 8 10 15 25 15 33 0 14 40 104
82 184 11 21 21 48 23 59 3 11 13 39 25 62 11 23 20 48 20 55 0 7 6 27 14 44
8 18 22 59 31 92 9 33 23 74 30 90 8 17 16 74 18 130 3 55 7 112 10 126 6 32
-16 122 -32 127 -18 6 -41 -18 -41 -42 0 -12 -7 -31 -15 -42 -8 -10 -15 -29
-15 -41 0 -12 -10 -41 -21 -63 -12 -23 -23 -49 -24 -58 -5 -42 -19 -83 -31
-93 -8 -6 -14 -19 -14 -29 0 -10 -13 -45 -30 -78 -16 -34 -30 -68 -30 -77 0
-8 -7 -18 -15 -21 -8 -4 -15 -16 -15 -28 0 -28 -58 -148 -77 -159 -7 -4 -13
-19 -13 -31 0 -13 -6 -26 -14 -29 -7 -3 -16 -20 -20 -38 -3 -18 -17 -47 -31
-65 -14 -18 -25 -41 -25 -52 0 -16 -27 -61 -50 -82 -3 -3 -27 -50 -55 -105
-27 -55 -56 -104 -62 -108 -7 -4 -13 -14 -13 -20 0 -7 -20 -44 -45 -81 -25
-38 -45 -74 -45 -81 0 -7 -6 -18 -13 -24 -8 -6 -22 -29 -32 -51 -20 -43 -31
-48 -61 -25 -10 8 -32 15 -49 15 -16 0 -50 14 -75 30 -25 16 -55 30 -66 30
-12 0 -27 6 -33 14 -6 7 -34 16 -61 20 -27 4 -52 11 -55 15 -3 5 -24 13 -48
17 -49 9 -41 7 -94 23 -24 6 -43 16 -43 21 0 6 -13 10 -30 10 -16 0 -49 6 -72
14 -63 20 -101 30 -115 27 -6 -1 -14 3 -18 9 -3 5 -23 10 -44 10 -21 0 -55 7
-74 15 -22 9 -67 15 -111 15 -42 0 -78 5 -81 11 -4 6 -14 8 -22 5 -9 -4 -21
-2 -27 3 -16 12 -81 23 -166 27 -100 4 -134 15 -138 43 -2 12 -10 25 -18 28
-8 3 -14 10 -14 15 0 6 -13 30 -30 55 -16 24 -30 52 -30 62 0 11 -7 21 -15 25
-8 3 -15 12 -15 21 0 8 -13 34 -30 57 -16 22 -30 45 -30 50 0 5 -8 17 -17 28
-10 10 -31 45 -48 77 -16 32 -36 62 -42 66 -7 4 -13 17 -13 28 0 11 -7 22 -15
25 -8 3 -24 26 -35 50 -12 24 -25 44 -28 44 -4 0 -15 17 -25 38 -10 20 -31 52
-47 71 -17 18 -30 39 -30 46 0 6 -13 25 -30 41 -16 16 -30 37 -30 46 0 9 -6
21 -14 25 -8 4 -29 31 -48 58 -36 54 -73 99 -100 124 -10 8 -18 22 -18 30 0 8
-20 34 -45 58 -25 23 -45 45 -45 48 0 2 -40 44 -90 93 -49 49 -90 97 -90 106
0 9 -12 21 -27 27 -14 5 -37 21 -49 34 -13 14 -25 25 -28 25 -3 0 -24 20 -48
45 -24 25 -51 45 -61 45 -10 0 -20 7 -23 15 -4 8 -12 15 -19 15 -6 0 -31 14
-53 30 -23 17 -50 30 -61 30 -10 0 -21 7 -25 15 -3 8 -18 15 -33 15 -16 0 -37
6 -48 14 -21 14 -95 24 -213 28 -54 2 -83 -2 -109 -14z m562 -958 c22 -6 47
-12 55 -14 27 -5 55 -19 63 -33 4 -7 19 -13 32 -13 14 0 25 -4 25 -10 0 -5 14
-17 32 -26 17 -9 60 -45 95 -80 35 -35 68 -64 74 -64 5 0 9 -4 9 -8 0 -9 60
-83 132 -165 24 -27 48 -54 53 -60 6 -7 23 -31 39 -54 16 -24 33 -43 37 -43 5
0 9 -5 9 -12 0 -6 13 -23 29 -37 15 -14 36 -42 46 -61 10 -19 24 -39 31 -43
16 -9 17 -17 5 -35 -6 -10 -57 -15 -212 -18 -223 -5 -250 -7 -269 -19 -13 -8
-120 -23 -207 -29 -29 -2 -64 -11 -79 -20 -14 -10 -51 -20 -82 -23 -32 -2 -66
-9 -77 -14 -11 -5 -54 -20 -95 -33 -89 -29 -130 -46 -148 -63 -7 -7 -18 -13
-24 -13 -6 0 -39 -14 -74 -31 -85 -42 -94 -37 -89 48 8 133 23 258 33 283 14
33 25 78 27 115 3 43 22 106 34 118 6 6 11 21 11 34 0 28 57 145 76 156 8 4
14 19 14 32 0 14 4 25 10 25 5 0 17 14 26 32 22 42 98 118 118 118 9 0 19 6
22 14 5 13 38 29 109 54 32 11 46 10 110 -8z m-1359 -724 c20 -19 40 -38 45
-43 56 -53 75 -94 66 -140 -3 -14 -1 -38 3 -52 5 -14 11 -69 15 -121 3 -52 8
-113 11 -135 3 -22 7 -74 7 -115 l2 -75 -90 2 c-49 0 -173 1 -275 1 -174 1
-187 2 -204 21 -14 15 -17 28 -12 53 4 18 10 62 14 98 4 36 13 75 20 87 7 12
12 55 12 97 0 41 5 78 10 81 15 9 50 81 50 104 0 10 7 21 15 25 8 3 15 14 15
23 0 10 8 26 18 34 11 9 25 25 33 36 30 41 61 53 136 53 69 0 74 -2 109 -34z
m2009 -371 c39 -3 124 -7 189 -11 65 -3 137 -12 160 -19 23 -8 79 -15 126 -15
56 0 95 -5 114 -15 15 -8 38 -15 50 -15 11 -1 32 -7 46 -15 14 -8 48 -14 76
-15 28 0 59 -6 70 -15 11 -8 42 -14 74 -15 31 0 64 -6 75 -14 11 -7 38 -17 60
-21 22 -5 42 -9 45 -10 3 -1 24 -7 48 -14 23 -6 42 -16 42 -21 0 -6 17 -10 37
-10 20 0 44 -6 52 -13 9 -7 43 -21 76 -31 33 -10 73 -24 88 -32 16 -8 37 -14
48 -14 11 0 37 -9 57 -20 66 -34 209 -100 220 -100 5 0 12 -7 16 -15 6 -18 -2
-45 -15 -45 -5 0 -9 -7 -9 -15 0 -8 -4 -15 -9 -15 -5 0 -21 -20 -35 -45 -15
-25 -31 -45 -36 -45 -6 0 -10 -7 -10 -16 0 -14 -14 -34 -73 -104 -7 -8 -21
-28 -31 -45 -11 -16 -27 -38 -37 -47 -9 -10 -24 -27 -33 -39 -17 -25 -46 -19
-46 9 0 11 -11 31 -25 46 -14 15 -25 29 -25 32 0 2 -8 12 -17 22 -34 34 -73
86 -73 95 0 13 -245 257 -257 257 -6 0 -29 14 -51 30 -23 17 -48 30 -56 30 -8
0 -19 6 -23 13 -13 21 -125 75 -171 82 l-43 7 3 -33 c2 -23 9 -35 23 -39 21
-5 44 -24 130 -107 30 -29 59 -53 64 -53 13 0 131 -117 131 -130 0 -6 16 -26
35 -46 19 -19 35 -39 35 -44 0 -6 4 -10 9 -10 5 0 23 -22 39 -48 16 -26 36
-54 44 -62 22 -23 55 -94 51 -107 -6 -17 -23 -16 -61 2 -17 9 -41 18 -53 20
-11 2 -40 13 -63 25 -23 11 -52 20 -64 20 -12 0 -45 9 -74 21 -29 12 -62 23
-73 25 -64 11 -106 22 -117 31 -7 6 -32 13 -56 17 -24 3 -51 11 -60 16 -9 5
-44 16 -77 25 -33 9 -75 23 -93 31 -18 8 -48 14 -67 14 -19 0 -75 14 -125 30
-50 17 -105 30 -123 30 -18 0 -42 7 -53 15 -10 8 -34 15 -52 15 -18 0 -45 6
-60 14 -16 8 -48 17 -72 21 -25 4 -54 9 -65 11 -11 2 -43 8 -72 12 -28 5 -57
13 -65 19 -7 6 -47 13 -88 16 -82 6 -105 10 -165 27 -22 6 -53 13 -70 15 -64
8 -148 26 -166 35 -10 6 -55 10 -101 10 -46 1 -101 7 -123 15 -84 30 -129 9
-138 -66 -3 -24 -8 -57 -12 -74 -3 -16 -8 -65 -11 -108 -7 -103 8 -126 82
-127 32 0 56 -5 63 -14 7 -8 28 -17 49 -21 20 -5 44 -10 52 -12 8 -2 45 -7 82
-11 37 -4 73 -13 80 -20 6 -6 27 -12 45 -12 18 0 50 -6 70 -14 21 -8 58 -17
82 -21 59 -8 141 -35 141 -46 0 -5 25 -9 56 -9 31 0 68 -6 82 -14 44 -22 127
-46 160 -46 17 0 32 -6 36 -15 3 -10 19 -15 42 -15 20 0 48 -6 62 -14 15 -8
54 -22 87 -31 33 -9 73 -23 88 -31 16 -8 44 -14 63 -14 19 0 59 -13 91 -30 31
-16 66 -30 78 -30 13 0 25 -7 29 -15 3 -8 17 -15 31 -15 15 0 36 -5 48 -12 31
-17 119 -47 138 -48 9 0 19 -7 23 -15 3 -8 18 -15 34 -15 15 0 37 -7 48 -15
10 -8 26 -15 35 -15 9 0 22 -7 29 -15 7 -8 20 -15 30 -15 10 0 23 -7 30 -15 7
-8 25 -15 41 -15 15 0 34 -6 41 -14 11 -11 39 -24 68 -31 43 -12 60 -19 60
-25 0 -9 80 -50 97 -50 6 0 16 -7 23 -15 7 -8 20 -15 30 -15 10 0 23 -7 30
-15 7 -8 22 -15 33 -15 19 0 124 -64 139 -85 4 -5 8 -49 8 -96 0 -78 -12 -144
-41 -216 -5 -13 -6 -30 -2 -39 6 -17 -14 -115 -32 -154 -7 -14 -15 -44 -19
-68 -3 -24 -10 -51 -15 -60 -5 -9 -17 -46 -27 -81 -11 -35 -25 -66 -31 -68 -7
-3 -13 -16 -13 -28 0 -27 -59 -146 -77 -158 -7 -4 -13 -19 -13 -32 0 -14 -4
-25 -10 -25 -5 0 -16 -14 -25 -30 -9 -17 -13 -30 -10 -30 3 0 -1 -14 -10 -30
-9 -17 -20 -30 -25 -30 -6 0 -10 -6 -10 -13 0 -7 -13 -29 -30 -47 -16 -18 -30
-39 -30 -46 0 -6 -7 -14 -15 -18 -8 -3 -15 -14 -15 -25 0 -11 -6 -24 -13 -28
-8 -4 -24 -24 -38 -43 -23 -34 -70 -92 -110 -136 -10 -12 -19 -27 -19 -34 0
-6 -15 -26 -32 -44 -18 -18 -60 -63 -93 -100 -98 -110 -101 -113 -123 -125
-12 -7 -22 -17 -22 -24 0 -14 -247 -266 -301 -307 -17 -14 -56 -47 -84 -75
-65 -62 -144 -129 -159 -134 -6 -2 -16 -8 -21 -15 -23 -25 -95 -76 -108 -76
-8 0 -17 -6 -20 -13 -2 -7 -27 -25 -55 -40 l-51 -27 -7 22 c-3 12 -13 28 -20
36 -8 7 -14 20 -14 27 0 8 -11 34 -24 59 -14 25 -27 59 -31 76 -4 16 -12 33
-19 37 -7 5 -18 24 -26 43 -13 36 -46 112 -60 140 -13 27 12 48 58 48 24 0 77
6 118 12 42 6 78 9 81 7 2 -3 20 1 38 9 19 8 54 14 77 14 24 0 52 7 62 15 11
8 29 15 40 15 12 0 53 12 91 26 39 14 81 28 93 31 31 7 239 148 263 176 20 25
17 35 -18 48 -20 8 -34 4 -69 -16 -23 -14 -50 -25 -58 -25 -9 0 -16 -4 -16 -9
0 -11 -98 -44 -110 -36 -5 3 -33 -6 -62 -19 -29 -14 -75 -27 -103 -30 -27 -2
-63 -7 -80 -11 -16 -3 -75 -10 -130 -15 -55 -5 -121 -11 -147 -14 -77 -7 -80
12 -12 78 31 31 58 56 60 56 1 0 35 30 74 68 40 37 80 72 89 77 10 6 77 69
150 140 321 317 541 537 541 541 0 2 27 30 60 62 33 33 60 63 60 68 0 5 22 32
48 60 65 70 95 106 107 125 13 20 104 127 128 148 9 8 17 20 17 26 0 5 20 32
45 58 25 27 45 53 45 58 0 5 4 9 10 9 5 0 16 13 25 29 14 28 24 41 89 111 39
43 48 67 35 93 -15 28 -44 56 -91 87 -21 14 -38 28 -38 31 0 4 -10 9 -22 13
-13 3 -35 16 -49 30 -14 13 -39 27 -56 30 -27 6 -36 2 -74 -37 -24 -25 -59
-62 -77 -83 -17 -22 -36 -43 -41 -48 -33 -30 -49 -47 -70 -72 -13 -16 -38 -46
-57 -66 -19 -20 -34 -42 -34 -48 0 -5 -4 -10 -9 -10 -13 0 -141 -128 -141
-141 0 -5 -4 -9 -10 -9 -12 0 -170 -160 -170 -172 0 -4 -6 -8 -13 -8 -15 0
-107 -93 -107 -108 0 -5 -12 -14 -27 -21 -16 -7 -35 -19 -43 -27 -92 -84 -162
-149 -211 -196 -33 -32 -65 -58 -70 -58 -5 0 -25 -16 -45 -35 -19 -19 -37 -35
-40 -35 -3 0 -19 -13 -37 -30 -18 -16 -36 -30 -41 -30 -5 0 -28 -19 -51 -43
-23 -24 -48 -47 -56 -51 -41 -20 -51 -28 -143 -109 -17 -15 -41 -30 -53 -33
-13 -3 -23 -10 -23 -15 0 -4 -20 -20 -45 -35 -25 -14 -45 -30 -45 -35 0 -5 -7
-9 -15 -9 -8 0 -15 -4 -15 -9 0 -5 -13 -14 -30 -20 -16 -5 -30 -15 -30 -20 0
-6 -4 -11 -9 -11 -6 0 -22 -11 -37 -25 -15 -14 -38 -28 -51 -31 -13 -4 -23
-10 -23 -15 0 -4 -20 -20 -45 -35 -25 -14 -45 -29 -45 -34 0 -7 -47 -20 -75
-21 -23 0 -71 15 -80 26 -5 7 -26 21 -45 31 -19 11 -39 25 -43 32 -4 6 -16 12
-25 12 -10 0 -28 14 -42 30 -14 17 -28 30 -32 30 -16 0 -223 209 -285 288 -18
22 -33 44 -33 49 0 4 -12 19 -26 32 -14 13 -36 44 -50 67 -14 24 -29 44 -33
44 -4 0 -22 33 -41 73 -19 39 -40 76 -47 80 -7 4 -13 15 -13 23 0 8 -13 33
-30 56 -16 22 -30 52 -30 65 0 13 -7 26 -15 29 -8 4 -15 16 -15 29 0 12 -7 28
-15 35 -8 7 -15 20 -15 30 0 10 -7 23 -15 30 -8 7 -15 23 -15 35 0 13 -4 25
-10 27 -5 2 -18 26 -28 55 -10 28 -24 58 -31 67 -8 9 -16 36 -19 61 -2 25 -11
50 -18 56 -8 6 -14 20 -14 30 0 10 -11 40 -26 66 -14 26 -28 67 -31 90 -3 24
-12 48 -19 54 -8 6 -14 22 -14 35 0 12 -4 25 -9 28 -5 3 -12 30 -16 61 -3 30
-10 57 -15 60 -5 3 -9 13 -9 23 -1 31 -13 87 -23 99 -10 12 -28 99 -32 153 -2
19 -11 51 -22 70 -14 26 -21 65 -26 160 -7 131 -10 155 -22 181 -4 8 -6 56 -4
105 3 102 6 104 92 85 50 -11 125 -18 261 -25 102 -5 155 -16 155 -33 0 -7 -6
-16 -14 -19 -8 -3 -18 -20 -21 -37 -4 -18 -18 -46 -31 -64 -13 -17 -24 -40
-24 -51 0 -11 -7 -22 -15 -26 -8 -3 -15 -16 -15 -30 0 -14 -5 -28 -11 -31 -6
-4 -8 -13 -5 -20 3 -8 -2 -29 -11 -47 -9 -17 -17 -46 -19 -63 -3 -50 -21 -127
-32 -134 -32 -20 -28 -423 5 -435 19 -8 48 8 58 31 8 17 24 125 26 168 0 11 8
44 16 74 9 30 17 61 18 70 3 33 28 112 36 117 5 3 9 16 9 29 0 12 14 50 30 83
17 34 30 68 30 77 0 8 7 18 15 21 8 4 15 12 15 19 0 19 47 110 65 125 18 15
22 7 28 -60 3 -25 13 -70 22 -100 10 -30 19 -68 20 -85 2 -27 16 -87 31 -140
4 -11 9 -38 11 -60 3 -22 11 -49 19 -60 7 -11 15 -47 18 -80 3 -33 15 -87 26
-120 12 -33 25 -87 29 -120 4 -33 17 -80 28 -105 11 -25 23 -63 27 -85 4 -21
14 -52 22 -67 8 -15 14 -43 14 -62 0 -19 4 -37 9 -40 13 -8 43 -105 36 -116
-3 -6 5 -33 19 -61 15 -28 26 -65 26 -84 0 -18 7 -38 15 -45 8 -7 15 -21 15
-31 0 -11 4 -27 9 -37 23 -46 51 -130 51 -156 0 -16 6 -37 13 -45 7 -9 21 -41
31 -71 18 -55 37 -101 63 -152 7 -14 13 -42 13 -62 0 -19 6 -39 13 -43 20 -13
47 -69 47 -97 0 -14 4 -26 9 -26 5 0 15 -16 21 -35 17 -53 47 -68 114 -60 31
4 61 13 67 21 6 8 18 14 26 14 8 0 29 11 47 25 18 14 47 28 65 31 60 12 73 75
32 153 -11 23 -21 51 -21 62 0 11 -7 27 -15 35 -8 9 -15 25 -15 37 0 12 -12
54 -26 92 -15 39 -29 88 -31 110 -3 22 -14 59 -24 82 -11 23 -22 52 -24 66 -3
13 -14 52 -25 87 -11 34 -20 73 -20 85 0 12 -6 28 -14 34 -8 7 -17 31 -20 54
-3 23 -7 49 -9 57 -2 8 -8 33 -12 55 -4 22 -12 45 -17 52 -6 7 -12 41 -15 75
-3 35 -9 68 -14 73 -10 14 -30 91 -33 130 -1 17 -10 46 -19 65 -9 19 -16 46
-16 60 0 55 -14 176 -23 194 -16 30 -31 124 -34 221 -5 103 -12 155 -26 172
-5 7 -14 74 -18 150 -5 76 -11 152 -15 168 -10 51 -18 395 -9 395 5 0 24 14
43 30 18 17 37 30 42 30 5 0 32 11 61 25 60 27 127 52 175 65 18 4 52 18 75
30 27 14 69 23 113 27 39 2 77 7 85 11 36 14 206 31 378 36 57 2 105 5 107 7
4 5 64 2 170 -6z m2075 -630 c7 -8 18 -15 26 -15 7 0 19 -6 26 -13 7 -7 29
-24 49 -38 44 -29 145 -115 173 -148 12 -12 31 -34 44 -48 12 -13 29 -37 37
-54 9 -16 20 -29 25 -29 6 0 10 -7 10 -15 0 -8 4 -15 8 -15 13 0 44 -60 38
-76 -3 -8 -1 -25 4 -39 16 -43 1 -111 -34 -150 -17 -19 -40 -35 -50 -35 -10 0
-24 -7 -30 -15 -16 -21 -170 -41 -203 -26 -13 6 -32 11 -42 11 -11 0 -21 7
-25 15 -3 8 -17 15 -31 15 -14 0 -25 4 -25 10 0 12 -73 50 -95 50 -9 0 -18 7
-21 15 -4 8 -14 15 -23 15 -9 0 -25 6 -36 13 -11 7 -42 22 -70 32 -27 10 -54
24 -58 32 -4 7 -17 13 -27 13 -26 0 -33 15 -15 30 8 7 15 18 15 25 0 7 13 28
30 46 16 19 30 42 30 52 0 10 7 20 15 23 8 4 15 12 15 20 0 8 4 14 9 14 10 0
51 79 51 98 0 7 7 15 15 18 8 4 15 10 15 16 0 5 23 45 52 89 52 80 73 94 98
64z m-271 -1229 c64 -43 90 -63 141 -110 14 -12 41 -31 60 -42 19 -10 40 -26
47 -35 6 -8 50 -54 97 -102 47 -48 92 -100 101 -117 9 -16 20 -30 25 -30 6 0
10 -11 10 -25 0 -13 6 -28 13 -32 6 -4 20 -24 31 -43 10 -19 24 -40 31 -45 7
-6 15 -28 17 -50 3 -22 10 -55 17 -72 6 -18 15 -45 19 -60 10 -33 -9 -158 -26
-175 -7 -7 -12 -21 -12 -32 0 -20 -76 -95 -97 -96 -7 0 -16 -6 -20 -12 -11
-18 -130 -78 -154 -78 -11 0 -30 -6 -42 -14 -12 -8 -40 -17 -62 -22 -22 -4
-42 -8 -45 -9 -3 -1 -23 -5 -45 -10 -22 -4 -48 -12 -58 -17 -11 -5 -74 -13
-140 -18 -67 -4 -133 -11 -147 -14 -34 -9 -159 -27 -190 -27 -86 -3 -96 13
-51 76 17 24 31 48 31 53 0 6 6 17 13 24 17 18 77 144 77 163 0 9 7 18 15 21
8 4 15 17 15 29 0 13 4 26 9 29 12 8 48 83 57 119 3 15 10 30 15 33 5 3 9 16
9 30 0 14 11 46 26 71 14 25 23 52 20 60 -7 18 15 105 30 118 7 6 15 44 19 85
4 41 10 80 15 85 13 17 20 75 22 195 3 113 9 140 30 140 6 0 40 -20 77 -44z
m-4064 -597 c10 -23 25 -44 32 -46 7 -3 13 -16 13 -29 0 -12 6 -27 13 -31 7
-4 21 -25 32 -46 11 -21 32 -50 46 -65 14 -15 34 -43 44 -62 10 -19 24 -39 31
-43 8 -4 14 -17 14 -27 0 -10 6 -23 13 -27 17 -11 107 -118 107 -128 0 -4 35
-43 78 -85 42 -43 87 -88 98 -101 39 -43 108 -103 159 -138 28 -19 54 -40 58
-48 4 -7 17 -13 27 -13 10 0 23 -6 27 -14 4 -7 29 -28 55 -45 57 -39 65 -49
41 -57 -10 -3 -58 -26 -106 -50 -49 -24 -97 -44 -108 -44 -11 0 -22 -6 -25
-14 -5 -13 -30 -23 -76 -32 -9 -2 -36 -11 -60 -20 -24 -9 -56 -18 -73 -21 -16
-3 -35 -9 -40 -13 -8 -7 -155 -26 -215 -29 -123 -5 -277 8 -291 25 -6 8 -27
14 -46 14 -21 0 -36 6 -39 15 -4 8 -12 15 -19 15 -12 0 -29 15 -87 81 -10 10
-18 27 -18 37 -1 9 -7 28 -15 42 -18 31 -21 254 -4 297 6 15 15 56 20 91 5 35
16 77 25 94 9 17 18 40 20 52 9 56 18 82 30 89 8 4 14 15 14 23 0 8 14 44 30
79 17 35 30 71 30 80 0 9 7 18 15 21 8 4 15 18 15 34 0 15 14 46 30 68 17 23
30 49 30 57 0 18 30 55 45 55 5 0 19 -19 30 -41z m1500 -1367 c10 -7 22 -26
60 -99 13 -23 31 -54 41 -70 11 -15 30 -50 44 -78 14 -27 28 -54 33 -60 4 -5
28 -50 52 -100 40 -78 44 -93 34 -112 -8 -16 -22 -23 -40 -23 -15 0 -30 -4
-33 -9 -3 -4 -34 -19 -68 -31 -35 -13 -72 -29 -83 -37 -11 -7 -32 -13 -48 -13
-15 0 -30 -6 -33 -14 -7 -18 -43 -27 -124 -32 -129 -8 -206 -5 -244 11 -31 13
-83 71 -91 101 -15 58 -3 181 19 199 7 6 15 21 19 35 10 40 127 150 159 150
10 0 18 4 18 10 0 5 11 12 25 16 14 3 29 12 33 18 4 7 39 34 77 61 39 26 72
52 75 56 5 7 47 27 60 28 3 0 10 -3 15 -7z"/>
</g>
</svg>
