<?xml version="1.0" standalone="no"?>
<!DOCTYPE svg PUBLIC "-//W3C//DTD SVG 20010904//EN"
 "http://www.w3.org/TR/2001/REC-SVG-20010904/DTD/svg10.dtd">
<svg version="1.0" xmlns="http://www.w3.org/2000/svg"
 width="900.000000pt" height="900.000000pt" viewBox="0 0 900.000000 900.000000"
 preserveAspectRatio="xMidYMid meet">
<metadata>
Created by potrace 1.10, written by Peter Selinger 2001-2011
</metadata>
<g transform="translate(0.000000,900.000000) scale(0.100000,-0.100000)"
fill="#000000" stroke="none">
<path d="M3403 8083 c-19 -7 -19 -6702 0 -6725 6 -9 127 -54 267 -102 140 -47
374 -127 520 -177 480 -164 585 -199 602 -199 10 0 22 9 28 19 7 14 10 925 10
2873 0 2484 2 2861 15 2916 36 152 110 221 222 207 55 -7 150 -57 183 -97 36
-44 78 -133 96 -208 18 -70 19 -149 24 -1299 l5 -1224 24 -16 c44 -29 204 -91
310 -121 275 -78 524 -54 733 70 186 110 324 288 411 530 87 242 117 439 117
768 0 625 -110 1062 -353 1402 -76 106 -247 278 -352 355 -44 32 -93 68 -110
80 -109 80 -451 253 -650 329 -66 26 -142 55 -170 66 -84 33 -427 148 -640
214 -82 26 -190 60 -240 76 -199 64 -424 126 -761 210 -234 58 -265 64 -291
53z"/>
<path d="M2890 3944 c-107 -41 -217 -83 -245 -93 -27 -11 -147 -56 -265 -102
-231 -88 -351 -134 -470 -179 -41 -15 -129 -49 -195 -74 -66 -26 -157 -60
-201 -75 -45 -16 -92 -35 -104 -41 -12 -7 -52 -23 -89 -35 -430 -152 -758
-305 -966 -453 -82 -58 -144 -123 -183 -192 -36 -63 -37 -68 -37 -165 0 -96 1
-103 37 -170 80 -152 254 -287 473 -370 783 -295 1529 -374 2315 -244 69 11
135 27 148 35 l22 14 0 385 0 385 -24 6 c-14 3 -37 -1 -54 -10 -17 -9 -57 -25
-89 -37 -108 -39 -324 -123 -488 -189 -84 -34 -224 -74 -320 -92 -108 -20
-444 -17 -522 4 -146 40 -212 102 -179 166 22 42 76 86 148 120 64 30 101 45
683 268 182 70 418 160 525 202 107 41 216 82 242 92 85 30 78 -10 78 475 0
386 -2 434 -16 439 -22 8 -9 12 -224 -70z"/>
<path d="M6345 3634 c-88 -8 -214 -24 -280 -35 -66 -12 -156 -27 -200 -34
-142 -23 -328 -69 -535 -131 -166 -49 -240 -82 -251 -111 -13 -34 -11 -850 2
-874 16 -30 14 -31 249 58 58 22 335 127 615 233 899 339 876 333 1180 334
200 1 305 -16 382 -60 88 -51 97 -105 28 -170 -66 -64 -67 -64 -590 -261 -22
-9 -49 -19 -60 -24 -25 -11 -192 -74 -265 -100 -30 -11 -100 -37 -155 -59
-126 -49 -372 -144 -535 -206 -167 -63 -282 -107 -387 -148 -49 -18 -167 -64
-263 -100 -103 -39 -182 -76 -193 -88 -16 -20 -18 -51 -17 -426 1 -223 6 -416
11 -429 10 -28 26 -29 87 -4 26 11 88 35 137 54 204 79 365 141 440 169 44 17
112 43 150 58 134 53 280 109 320 123 22 8 92 35 155 59 63 25 204 80 313 122
109 41 213 82 230 90 18 7 66 26 107 41 41 15 134 50 205 78 72 27 189 72 260
99 72 28 162 63 200 78 130 52 430 168 455 175 39 12 201 88 290 137 160 88
319 223 378 320 45 75 59 158 44 250 -40 230 -297 410 -841 589 -179 58 -354
104 -481 124 -47 8 -134 23 -195 34 -142 26 -495 51 -683 50 -81 -1 -219 -8
-307 -15z"/>
</g>
</svg>
