<?xml version="1.0" standalone="no"?>
<!DOCTYPE svg PUBLIC "-//W3C//DTD SVG 20010904//EN"
 "http://www.w3.org/TR/2001/REC-SVG-20010904/DTD/svg10.dtd">
<svg version="1.0" xmlns="http://www.w3.org/2000/svg"
 width="256.000000pt" height="256.000000pt" viewBox="0 0 256.000000 256.000000"
 preserveAspectRatio="xMidYMid meet">
<metadata>
Created by potrace 1.10, written by Peter Selinger 2001-2011
</metadata>
<g transform="translate(0.000000,256.000000) scale(0.050000,-0.050000)"
fill="#000000" stroke="none">
<path d="M2173 5090 c-1059 -173 -1885 -973 -2102 -2034 -28 -137 -41 -296
-25 -296 3 0 306 -126 672 -279 l667 -279 102 52 c63 31 149 55 223 61 l121
10 305 446 c266 390 304 456 304 525 0 780 1054 1174 1622 606 573 -573 178
-1642 -606 -1642 -71 0 -127 -33 -503 -303 -233 -167 -425 -305 -427 -306 -2
-1 -14 -63 -26 -138 -114 -716 -1069 -869 -1353 -217 -27 63 -56 127 -64 142
-14 27 -943 429 -957 414 -13 -12 97 -299 169 -442 924 -1846 3559 -1863 4504
-29 950 1843 -606 4040 -2626 3709z"/>
<path d="M3161 3817 c-316 -125 -481 -502 -360 -824 190 -509 906 -549 1154
-64 263 513 -261 1099 -794 888z m429 -154 c364 -166 370 -684 10 -870 -371
-191 -775 166 -659 582 71 253 402 400 649 288z"/>
<path d="M1644 2123 c-17 -11 25 -38 130 -81 300 -125 386 -224 386 -444 0
-328 -294 -467 -660 -313 -195 83 -205 82 -131 -15 358 -470 1092 -75 931 501
-69 246 -477 465 -656 352z"/>
</g>
</svg>
