<?xml version="1.0" standalone="no"?>
<!DOCTYPE svg PUBLIC "-//W3C//DTD SVG 20010904//EN"
 "http://www.w3.org/TR/2001/REC-SVG-20010904/DTD/svg10.dtd">
<svg version="1.0" xmlns="http://www.w3.org/2000/svg"
 width="225.000000pt" height="225.000000pt" viewBox="0 0 225.000000 225.000000"
 preserveAspectRatio="xMidYMid meet">
<metadata>
Created by potrace 1.10, written by Peter Selinger 2001-2011
</metadata>
<g transform="translate(0.000000,225.000000) scale(0.050000,-0.050000)"
fill="#000000" stroke="none">
<path d="M2010 4487 c-269 -32 -539 -112 -775 -230 -185 -92 -183 -89 -46 -80
206 13 452 -90 833 -347 262 -178 210 -170 373 -53 402 289 806 447 989 386
113 -38 11 30 -180 120 -362 169 -822 248 -1194 204z"/>
<path d="M3480 3872 c-195 -82 -454 -248 -686 -441 l-136 -114 146 -160 c865
-948 1256 -1758 1127 -2335 -15 -67 -16 -65 -79 101 -152 406 -490 844 -1242
1613 l-360 369 -422 -430 c-689 -702 -1093 -1244 -1201 -1611 -40 -133 -61
-100 -65 98 -11 595 450 1487 1140 2211 145 152 146 138 -17 281 -560 489
-859 563 -1120 277 -1208 -1321 -364 -3503 1436 -3712 1868 -217 3169 1897
2129 3461 -264 398 -417 490 -650 392z"/>
</g>
</svg>
