<?xml version="1.0" standalone="no"?>
<!DOCTYPE svg PUBLIC "-//W3C//DTD SVG 20010904//EN"
 "http://www.w3.org/TR/2001/REC-SVG-20010904/DTD/svg10.dtd">
<svg version="1.0" xmlns="http://www.w3.org/2000/svg"
 width="900.000000pt" height="189.000000pt" viewBox="0 0 900.000000 189.000000"
 preserveAspectRatio="xMidYMid meet">
<metadata>
Created by potrace 1.10, written by Peter Selinger 2001-2011
</metadata>
<g transform="translate(0.000000,189.000000) scale(0.100000,-0.100000)"
fill="#000000" stroke="none">
<path d="M410 1741 c-30 -9 -59 -19 -65 -22 -5 -3 -22 -9 -37 -13 -42 -10
-123 -68 -166 -120 -86 -104 -87 -109 -87 -616 0 -366 3 -446 16 -506 47 -205
220 -313 504 -317 61 0 142 5 180 12 101 19 208 75 269 139 62 65 63 66 86
154 22 84 32 320 14 338 -7 7 -84 9 -225 8 l-214 -3 -7 -170 c-7 -166 -8 -171
-33 -193 -31 -27 -65 -28 -95 -4 -19 15 -24 33 -30 103 -11 124 -5 888 8 920
12 30 30 39 77 39 59 0 67 -26 74 -245 l6 -190 221 -3 222 -2 6 26 c11 41 -3
280 -21 364 -8 41 -26 93 -39 115 -46 80 -159 150 -299 186 -91 24 -285 24
-365 0z"/>
<path d="M1380 1711 c-5 -11 -10 -39 -10 -63 0 -24 -6 -74 -14 -113 -22 -107
-34 -181 -46 -285 -6 -52 -15 -109 -21 -126 -5 -17 -9 -45 -9 -64 0 -18 -7
-72 -15 -119 -33 -188 -69 -410 -76 -476 -4 -38 -13 -116 -20 -173 -11 -89
-11 -104 1 -112 18 -11 380 -13 396 -2 13 9 41 164 55 312 6 63 14 151 19 195
4 44 12 107 18 140 21 110 42 279 48 383 4 56 10 102 14 102 15 0 31 -66 40
-165 5 -55 18 -167 30 -249 12 -81 18 -151 15 -154 -3 -3 -24 -8 -48 -11 l-42
-6 -7 -75 c-4 -41 -8 -97 -10 -125 l-3 -50 65 -3 c35 -2 69 -7 76 -13 6 -5 14
-49 18 -97 9 -106 23 -174 39 -184 17 -11 379 -10 396 1 9 6 12 22 8 52 -6 57
-25 171 -37 229 -10 44 -35 193 -50 300 -13 89 -37 227 -61 350 -12 63 -25
142 -29 175 -12 95 -40 257 -50 295 -6 19 -10 52 -10 73 0 81 20 77 -345 77
-310 0 -325 -1 -335 -19z"/>
<path d="M2388 983 c-1 -412 -1 -759 0 -772 1 -13 7 -28 14 -33 7 -4 167 -8
355 -8 336 0 342 0 353 21 13 23 10 282 -3 295 -4 4 -49 7 -100 6 -50 -1 -108
2 -127 6 l-35 8 -5 609 -5 610 -222 3 -223 2 -2 -747z"/>
<path d="M3237 1723 c-4 -3 -7 -352 -7 -774 0 -690 2 -767 16 -773 9 -3 167
-6 353 -6 249 0 340 3 349 12 19 19 17 292 -2 307 -10 8 -54 12 -129 10 -63
-1 -120 2 -126 5 -8 5 -11 187 -11 617 l0 609 -218 0 c-120 0 -222 -3 -225 -7z"/>
<path d="M4526 1714 c-3 -9 -6 -354 -6 -769 0 -653 2 -754 15 -765 22 -18 718
-7 795 13 172 43 227 95 249 235 14 87 14 775 1 957 -9 126 -10 130 -47 183
-45 66 -85 93 -178 120 -116 33 -226 42 -532 42 -256 0 -292 -2 -297 -16z
m564 -270 c38 -23 40 -43 40 -484 0 -448 -2 -465 -44 -491 -39 -24 -82 -25
-95 -1 -13 25 -13 963 1 979 15 18 65 16 98 -3z"/>
<path d="M5698 1718 c-7 -21 0 -1067 7 -1148 11 -121 22 -164 57 -221 43 -70
56 -81 157 -131 197 -97 417 -100 608 -6 62 30 94 53 127 92 84 98 80 58 83
784 l4 642 -223 -2 -223 -3 -5 -636 c-5 -608 -6 -638 -24 -658 -24 -27 -58
-27 -82 0 -18 20 -19 50 -24 658 l-5 636 -226 3 c-176 2 -228 0 -231 -10z"/>
<path d="M6844 1719 c-12 -20 -4 -283 9 -291 7 -4 62 -8 122 -8 61 0 117 -5
125 -10 13 -8 15 -87 15 -608 0 -493 2 -602 14 -615 12 -15 39 -17 210 -17
155 0 201 3 217 14 18 14 19 32 19 613 0 329 4 604 8 611 6 8 42 12 121 12 74
0 118 4 129 13 15 11 17 29 15 152 l-3 140 -497 3 c-366 2 -499 -1 -504 -9z"/>
<path d="M7935 1721 c-3 -5 2 -29 11 -53 8 -24 19 -59 24 -78 4 -19 24 -82 44
-140 20 -58 43 -128 51 -157 8 -28 33 -106 55 -173 22 -67 47 -145 55 -173 7
-29 25 -83 39 -121 26 -68 26 -73 26 -350 0 -206 3 -285 12 -294 9 -9 69 -12
209 -12 l197 0 7 144 c4 79 4 213 0 298 -6 142 -11 174 -45 268 -6 19 -16 51
-20 70 -5 19 -31 100 -58 180 -27 80 -61 181 -75 225 -14 44 -37 112 -50 150
-14 39 -33 99 -43 135 -9 36 -22 71 -27 78 -11 15 -402 18 -412 3z"/>
<path d="M8575 1708 c-2 -13 -18 -79 -35 -147 -29 -122 -29 -126 -13 -175 20
-64 41 -122 59 -164 8 -18 14 -40 14 -50 1 -27 95 -297 104 -297 8 0 55 118
76 190 27 89 43 140 76 230 20 55 39 114 43 130 19 86 75 235 87 235 9 0 14
12 14 35 l0 35 -210 0 c-209 0 -210 0 -215 -22z"/>
<path d="M3896 1351 c-61 -41 -66 -58 -66 -256 0 -161 2 -183 20 -212 29 -49
71 -66 148 -61 112 7 132 51 132 286 0 179 -9 211 -71 242 -50 26 -125 26
-163 1z m109 -114 c11 -56 1 -295 -12 -308 -27 -27 -33 4 -33 165 0 89 3 166
7 169 16 16 33 5 38 -26z"/>
<path d="M4181 1346 c-8 -9 -11 -87 -9 -262 l3 -249 49 -3 c27 -2 53 1 59 7 5
5 10 51 11 103 l1 93 35 11 c33 11 35 14 35 54 0 40 -2 43 -35 54 -36 12 -46
31 -36 71 5 18 14 25 38 27 25 2 33 9 39 31 4 16 4 40 -1 53 -9 23 -14 24 -94
24 -59 0 -87 -4 -95 -14z"/>
</g>
</svg>
