<?xml version="1.0" standalone="no"?>
<!DOCTYPE svg PUBLIC "-//W3C//DTD SVG 20010904//EN"
 "http://www.w3.org/TR/2001/REC-SVG-20010904/DTD/svg10.dtd">
<svg version="1.0" xmlns="http://www.w3.org/2000/svg"
 width="528.000000pt" height="174.000000pt" viewBox="0 0 528.000000 174.000000"
 preserveAspectRatio="xMidYMid meet">
<metadata>
Created by potrace 1.10, written by Peter Selinger 2001-2011
</metadata>
<g transform="translate(0.000000,174.000000) scale(0.100000,-0.100000)"
fill="#000000" stroke="none">
<path d="M50 860 l0 -810 253 2 252 3 3 483 c2 392 5 482 15 482 8 0 45 -33
83 -72 38 -40 191 -199 340 -353 149 -154 312 -322 360 -373 49 -50 95 -92
102 -92 8 0 46 33 85 74 177 183 547 566 592 612 28 27 88 90 134 138 62 66
86 85 92 75 5 -8 9 -85 9 -171 0 -105 4 -158 11 -158 9 0 65 56 403 405 l106
110 -2 225 -3 225 -300 3 -300 2 -85 -87 c-345 -355 -704 -733 -708 -744 -8
-21 -61 -9 -82 19 -12 15 -99 108 -194 207 -95 99 -210 221 -257 270 -46 50
-138 145 -203 213 l-120 122 -293 0 -293 0 0 -810z"/>
<path d="M4697 1663 c-4 -3 -7 -222 -7 -485 0 -312 -3 -478 -10 -478 -13 0
-14 0 -605 614 -132 137 -251 260 -265 273 l-25 24 -94 -98 c-185 -192 -597
-620 -687 -712 -55 -56 -96 -91 -103 -87 -7 5 -11 57 -11 162 l0 155 -22 -12
c-13 -7 -25 -15 -28 -19 -3 -4 -106 -112 -230 -239 -124 -128 -228 -238 -232
-245 -9 -16 -12 -442 -3 -456 4 -6 107 -10 289 -10 l282 0 229 237 c127 131
253 260 280 288 28 28 112 115 188 193 76 78 140 142 143 142 6 0 124 -120
349 -356 99 -103 249 -259 334 -346 l154 -158 294 0 293 0 0 810 0 810 -253 0
c-140 0 -257 -3 -260 -7z"/>
</g>
</svg>
