<?xml version="1.0" standalone="no"?>
<!DOCTYPE svg PUBLIC "-//W3C//DTD SVG 20010904//EN"
 "http://www.w3.org/TR/2001/REC-SVG-20010904/DTD/svg10.dtd">
<svg version="1.0" xmlns="http://www.w3.org/2000/svg"
 width="300.000000pt" height="74.000000pt" viewBox="0 0 300.000000 74.000000"
 preserveAspectRatio="xMidYMid meet">
<metadata>
Created by potrace 1.10, written by Peter Selinger 2001-2011
</metadata>
<g transform="translate(0.000000,74.000000) scale(0.100000,-0.100000)"
fill="#000000" stroke="none">
<path d="M0 660 c0 -64 3 -80 15 -80 9 0 20 -20 29 -52 17 -61 136 -519 136
-524 0 -2 70 -4 155 -4 l154 0 10 38 c66 247 81 311 81 335 0 36 -78 349 -91
362 -21 21 -38 -29 -79 -230 -23 -116 -45 -214 -49 -218 -4 -4 -15 45 -25 110
-9 65 -20 133 -23 151 -5 29 -3 32 20 32 22 0 27 6 32 33 4 18 5 53 3 77 l-3
45 -182 3 -183 2 0 -80z"/>
<path d="M522 731 c-11 -6 4 -76 72 -347 48 -186 91 -349 96 -361 9 -22 14
-23 154 -23 l144 0 11 48 c6 26 31 155 57 287 25 132 50 242 55 243 5 2 9 39
9 83 l0 80 -152 -3 -153 -3 0 -75 c0 -74 0 -75 28 -78 15 -2 27 -9 27 -17 0
-19 -29 -232 -37 -270 -8 -39 -7 -40 -72 205 -29 107 -56 205 -61 218 -9 20
-16 22 -87 22 -43 0 -84 -4 -91 -9z"/>
<path d="M1150 660 c0 -63 3 -80 15 -80 17 0 20 -8 99 -325 l62 -250 156 -3
156 -2 6 27 c4 16 25 99 48 186 l42 158 -44 179 c-41 169 -59 208 -80 183 -4
-4 -26 -105 -50 -223 -23 -118 -46 -222 -50 -230 -5 -9 -10 3 -15 35 -4 28
-13 88 -21 134 -19 116 -19 129 9 133 20 3 22 9 25 81 l3 77 -181 0 -180 0 0
-80z"/>
<path d="M1671 731 c-12 -8 -5 -46 42 -233 106 -415 124 -480 138 -489 8 -5
75 -9 150 -9 l136 0 53 273 c59 312 58 307 71 307 5 0 9 36 9 80 l0 80 -155 0
-155 0 0 -80 0 -80 31 0 31 0 -6 -47 c-25 -186 -40 -264 -46 -252 -5 8 -34
111 -65 229 -32 118 -58 216 -59 216 -7 8 -164 12 -175 5z"/>
<path d="M2290 660 c0 -73 2 -80 20 -80 19 0 20 -7 20 -206 0 -197 -1 -206
-20 -211 -18 -5 -20 -14 -20 -84 l0 -79 175 0 175 0 0 76 c0 67 -2 76 -20 81
-19 5 -20 14 -20 214 0 204 1 209 20 209 19 0 21 5 18 78 l-3 77 -172 3 -173
2 0 -80z"/>
<path d="M2657 733 c-4 -3 -7 -39 -7 -80 0 -66 2 -73 20 -73 19 0 20 -7 20
-210 0 -203 -1 -210 -20 -210 -18 0 -20 -7 -20 -80 l0 -80 175 0 175 0 0 80
c0 73 -2 80 -20 80 -19 0 -20 7 -20 210 0 203 1 210 20 210 18 0 20 7 20 80
l0 80 -168 0 c-93 0 -172 -3 -175 -7z"/>
</g>
</svg>
