<?xml version="1.0" standalone="no"?>
<!DOCTYPE svg PUBLIC "-//W3C//DTD SVG 20010904//EN"
 "http://www.w3.org/TR/2001/REC-SVG-20010904/DTD/svg10.dtd">
<svg version="1.0" xmlns="http://www.w3.org/2000/svg"
 width="900.000000pt" height="987.000000pt" viewBox="0 0 900.000000 987.000000"
 preserveAspectRatio="xMidYMid meet">
<metadata>
Created by potrace 1.10, written by Peter Selinger 2001-2011
</metadata>
<g transform="translate(0.000000,987.000000) scale(0.100000,-0.100000)"
fill="#000000" stroke="none">
<path d="M34 9811 c-2 -3 -4 -337 -4 -744 0 -790 -3 -734 47 -847 8 -19 22
-51 30 -70 8 -19 22 -51 30 -70 8 -19 21 -48 27 -65 7 -16 21 -48 30 -70 10
-22 24 -55 32 -73 7 -18 20 -47 28 -65 9 -17 18 -44 22 -59 3 -16 10 -28 14
-28 4 0 11 -15 14 -34 4 -19 12 -36 19 -39 9 -3 12 -303 12 -1363 0 -1490 5
-1348 -52 -1474 -17 -37 -31 -70 -58 -135 -9 -22 -23 -52 -31 -67 -7 -14 -14
-36 -14 -47 0 -12 -4 -21 -10 -21 -5 0 -12 -16 -16 -35 -3 -19 -10 -35 -14
-35 -5 0 -11 -10 -15 -22 -8 -31 -32 -90 -67 -166 l-28 -62 0 -1114 0 -1114
40 -21 c22 -12 47 -21 55 -21 8 0 15 -4 15 -9 0 -5 10 -13 22 -16 13 -4 37
-12 53 -20 17 -7 48 -21 70 -30 22 -9 69 -31 105 -47 36 -17 79 -37 95 -44 17
-7 46 -20 67 -28 20 -9 41 -16 47 -16 6 0 11 -4 11 -9 0 -5 10 -13 22 -16 13
-4 39 -14 58 -22 19 -9 49 -22 65 -29 17 -7 62 -27 100 -44 81 -37 122 -55
167 -75 18 -7 65 -28 103 -45 39 -18 86 -39 105 -47 19 -9 47 -22 62 -30 14
-7 33 -13 42 -13 9 0 16 -4 16 -10 0 -5 5 -10 11 -10 7 0 33 -10 58 -21 25
-12 62 -29 81 -37 19 -8 42 -19 50 -24 8 -4 22 -11 30 -14 74 -30 133 -56 208
-93 34 -17 71 -31 82 -31 11 0 20 -4 20 -10 0 -5 5 -10 11 -10 12 0 60 -21
154 -68 69 -34 103 -43 107 -29 2 7 3 1981 3 4387 l-1 4375 -1063 0 c-584 0
-1065 -2 -1067 -4z"/>
<path d="M2523 9813 c-17 -6 -19 -8923 -3 -8954 6 -11 21 -19 35 -19 14 0 25
-4 25 -10 0 -5 6 -10 13 -10 6 -1 30 -9 52 -20 22 -11 46 -19 53 -20 6 0 12
-4 12 -9 0 -5 10 -13 23 -16 12 -4 36 -12 52 -20 17 -7 46 -20 65 -28 19 -8
65 -29 102 -46 37 -18 98 -46 135 -63 38 -17 80 -37 95 -44 14 -8 33 -14 42
-14 9 0 16 -4 16 -10 0 -5 6 -10 13 -10 7 0 29 -9 50 -20 20 -11 44 -20 52
-20 8 0 15 -4 15 -10 0 -5 5 -10 11 -10 11 0 75 -28 131 -56 14 -8 33 -14 42
-14 9 0 16 -4 16 -10 0 -5 5 -10 11 -10 6 0 43 -16 83 -35 40 -19 78 -35 83
-35 6 0 16 -7 23 -15 7 -8 20 -15 29 -15 9 0 43 -13 76 -29 54 -27 130 -62
235 -108 19 -9 47 -22 62 -30 14 -7 31 -13 38 -13 6 0 18 -7 26 -15 9 -8 24
-15 33 -15 10 0 24 -7 31 -15 7 -8 15 -13 19 -11 3 2 6 2204 6 4893 l-1 4888
-894 2 c-492 1 -901 -1 -907 -4z"/>
<path d="M4678 9813 c-17 -4 -18 -261 -18 -4889 0 -3031 4 -4884 9 -4884 6 0
13 5 16 10 3 6 17 10 29 10 13 0 29 7 36 15 7 8 19 15 26 15 8 0 40 13 71 29
61 31 150 72 301 137 20 10 44 21 52 25 8 5 26 14 40 19 44 18 75 32 90 41 8
5 22 12 30 15 8 3 44 19 80 36 36 16 79 36 95 43 17 7 59 27 95 43 36 17 75
33 88 37 12 3 22 11 22 16 0 5 11 9 24 9 13 0 29 7 36 15 7 8 19 15 26 15 8 0
31 9 51 20 21 11 43 20 50 20 7 0 13 4 13 9 0 5 16 12 35 15 19 4 35 11 35 16
0 6 9 10 19 10 11 0 26 7 35 15 8 8 19 15 25 15 13 0 167 69 331 148 l55 27 3
4477 2 4478 -892 -1 c-491 -1 -901 -3 -910 -6z"/>
<path d="M6818 9813 c-6 -14 -2 -8782 4 -8788 3 -4 23 3 44 14 21 12 44 21 51
21 7 0 13 5 13 10 0 6 7 10 16 10 9 0 28 6 42 13 15 8 45 22 67 32 22 9 47 21
55 26 8 5 22 12 30 15 8 3 29 11 45 19 17 7 48 21 70 30 22 9 47 21 55 26 8 5
26 14 40 19 44 18 75 32 90 41 8 5 22 12 30 16 8 3 34 14 57 24 23 11 47 19
52 19 6 0 11 5 11 10 0 6 6 10 13 10 6 0 24 6 38 14 14 7 37 16 52 20 15 3 27
11 27 16 0 6 7 10 16 10 9 0 28 6 42 14 56 28 120 56 131 56 6 0 11 5 11 10 0
6 8 10 18 10 10 0 26 6 37 14 11 7 32 16 48 20 15 3 27 11 27 16 0 6 7 10 16
10 9 0 28 6 42 13 15 8 43 21 62 30 19 8 64 29 100 45 36 17 75 33 88 37 12 3
22 11 22 16 0 5 7 9 16 9 9 0 28 6 42 14 15 7 56 27 92 43 36 17 86 40 111 51
25 12 51 22 58 22 6 0 11 5 11 10 0 6 11 10 24 10 13 0 29 7 36 15 7 8 18 15
25 15 8 0 45 16 84 36 l71 36 0 1117 c0 967 -2 1120 -15 1137 -8 10 -15 29
-15 40 0 12 -7 27 -15 34 -8 7 -15 20 -15 29 0 10 -7 26 -15 37 -8 10 -15 26
-15 34 0 8 -9 33 -20 55 -11 22 -19 46 -20 53 0 6 -4 12 -10 12 -5 0 -10 9
-10 21 0 11 -7 33 -14 47 -8 15 -22 45 -31 67 -39 96 -84 195 -98 220 -9 15
-13 348 -15 1363 -2 1327 -2 1343 18 1387 11 24 20 48 20 54 0 5 6 22 14 38 8
15 21 44 29 63 8 19 22 51 30 70 26 61 45 104 55 130 6 14 20 46 31 72 12 26
21 54 21 62 0 9 4 16 9 16 5 0 13 14 16 32 4 17 14 38 21 46 8 7 14 22 14 33
0 11 7 30 15 43 13 20 15 118 13 767 l-3 744 -1062 3 c-584 1 -1063 -1 -1065
-5z"/>
</g>
</svg>
