<?xml version="1.0" standalone="no"?>
<!DOCTYPE svg PUBLIC "-//W3C//DTD SVG 20010904//EN"
 "http://www.w3.org/TR/2001/REC-SVG-20010904/DTD/svg10.dtd">
<svg version="1.0" xmlns="http://www.w3.org/2000/svg"
 width="48.000000pt" height="48.000000pt" viewBox="0 0 48.000000 48.000000"
 preserveAspectRatio="xMidYMid meet">
<metadata>
Created by potrace 1.10, written by Peter Selinger 2001-2011
</metadata>
<g transform="translate(0.000000,48.000000) scale(0.100000,-0.100000)"
fill="#000000" stroke="none">
<path d="M0 240 l0 -240 240 0 240 0 0 240 0 240 -240 0 -240 0 0 -240z m321
140 c26 -26 30 -36 27 -77 -3 -46 -4 -48 -36 -51 -39 -4 -62 12 -62 43 0 22
-22 40 -34 28 -3 -4 -6 -48 -6 -100 0 -86 1 -93 20 -93 15 0 20 7 20 28 0 37
17 52 56 52 34 0 44 -13 44 -59 0 -93 -146 -135 -212 -61 -27 29 -28 34 -28
145 l0 114 33 30 c28 27 39 31 90 31 52 0 62 -4 88 -30z"/>
</g>
</svg>
