<?xml version="1.0" standalone="no"?>
<!DOCTYPE svg PUBLIC "-//W3C//DTD SVG 20010904//EN"
 "http://www.w3.org/TR/2001/REC-SVG-20010904/DTD/svg10.dtd">
<svg version="1.0" xmlns="http://www.w3.org/2000/svg"
 width="528.000000pt" height="231.000000pt" viewBox="0 0 528.000000 231.000000"
 preserveAspectRatio="xMidYMid meet">
<metadata>
Created by potrace 1.10, written by Peter Selinger 2001-2011
</metadata>
<g transform="translate(0.000000,231.000000) scale(0.100000,-0.100000)"
fill="#000000" stroke="none">
<path d="M52 1138 l3 -1073 875 -3 c1090 -3 1088 -3 1281 101 83 44 132 113
163 227 15 56 17 96 14 265 -5 207 -4 201 -56 325 -28 66 -112 130 -212 163
-72 24 -91 39 -53 45 49 7 126 39 174 71 40 27 60 51 83 96 l31 60 3 243 c3
227 2 247 -19 307 -39 117 -128 194 -260 226 -76 18 -130 19 -1055 19 l-974 0
2 -1072z m1781 694 c60 -38 71 -69 75 -212 3 -115 1 -129 -20 -169 -31 -60
-60 -79 -143 -91 -96 -13 -1160 -13 -1186 0 -18 10 -19 24 -19 250 0 181 3
240 13 244 6 3 289 4 627 3 l615 -2 38 -23z m-52 -843 c59 -12 85 -29 114 -73
17 -25 19 -49 20 -190 0 -143 -2 -165 -19 -191 -56 -85 -70 -87 -771 -83
l-580 3 -3 264 c-2 205 1 266 10 273 20 12 1165 10 1229 -3z"/>
<path d="M2850 2190 c-150 -34 -210 -90 -267 -245 -17 -47 -18 -101 -18 -805
0 -706 1 -758 18 -805 38 -103 87 -176 132 -196 11 -5 27 -13 35 -18 94 -56
185 -61 1148 -60 1003 1 1037 3 1158 81 42 27 94 82 94 100 0 5 6 24 14 41 45
106 46 128 46 859 0 737 2 703 -47 856 -34 104 -107 162 -246 193 -77 17 -141
18 -1037 18 -865 -1 -962 -3 -1030 -19z m1848 -1043 l2 -677 -817 2 -818 3 -3
669 c-2 529 0 671 10 678 7 4 375 7 818 5 l805 -2 3 -678z"/>
</g>
</svg>
