<?xml version="1.0" standalone="no"?>
<!DOCTYPE svg PUBLIC "-//W3C//DTD SVG 20010904//EN"
 "http://www.w3.org/TR/2001/REC-SVG-20010904/DTD/svg10.dtd">
<svg version="1.0" xmlns="http://www.w3.org/2000/svg"
 width="200.000000pt" height="200.000000pt" viewBox="0 0 200.000000 200.000000"
 preserveAspectRatio="xMidYMid meet">
<metadata>
Created by potrace 1.10, written by Peter Selinger 2001-2011
</metadata>
<g transform="translate(0.000000,200.000000) scale(0.100000,-0.100000)"
fill="#000000" stroke="none">
<path d="M967 1927 c-10 -130 -63 -231 -150 -281 -23 -14 -89 -38 -147 -55
-106 -31 -140 -53 -140 -91 0 -27 26 -94 53 -138 l26 -39 -45 -7 c-54 -7 -130
-45 -166 -83 -47 -49 -78 -130 -78 -203 0 -81 12 -125 50 -181 l29 -44 -71
-17 c-97 -24 -155 -55 -213 -113 -225 -225 -100 -607 217 -665 36 -7 288 -10
705 -8 727 4 702 1 803 77 128 96 187 264 146 416 -41 155 -156 261 -318 295
-32 6 -58 15 -58 19 0 4 11 18 25 31 14 13 34 48 46 79 65 173 -50 369 -233
396 l-46 7 15 36 c20 47 20 145 0 200 -42 112 -179 264 -334 369 -48 33 -93
63 -99 66 -8 4 -13 -17 -17 -66z"/>
</g>
</svg>
