<?xml version="1.0" standalone="no"?>
<!DOCTYPE svg PUBLIC "-//W3C//DTD SVG 20010904//EN"
 "http://www.w3.org/TR/2001/REC-SVG-20010904/DTD/svg10.dtd">
<svg version="1.0" xmlns="http://www.w3.org/2000/svg"
 width="900.000000pt" height="327.000000pt" viewBox="0 0 900.000000 327.000000"
 preserveAspectRatio="xMidYMid meet">
<metadata>
Created by potrace 1.10, written by Peter Selinger 2001-2011
</metadata>
<g transform="translate(0.000000,327.000000) scale(0.100000,-0.100000)"
fill="#000000" stroke="none">
<path d="M0 1634 l0 -1636 28 7 c15 4 63 11 107 15 44 5 112 13 150 19 182 26
752 88 1063 116 94 8 247 22 340 30 183 16 470 36 857 60 774 47 1659 63 2546
47 735 -14 1010 -26 1774 -78 207 -14 303 -21 735 -59 270 -24 624 -60 877
-91 327 -39 382 -45 439 -54 34 -6 66 -10 73 -10 8 0 11 422 11 1635 l0 1635
-31 0 c-16 0 -28 -4 -24 -9 10 -16 -9 -20 -144 -31 -73 -5 -169 -14 -214 -20
-45 -5 -147 -17 -227 -25 -80 -9 -201 -22 -270 -30 -69 -8 -156 -17 -195 -20
-38 -4 -110 -12 -160 -18 l-90 -12 -5 -69 c-6 -85 8 -79 -230 -94 -442 -29
-539 -34 -549 -28 -6 4 -11 22 -11 39 0 63 9 61 -297 60 -153 -1 -295 0 -315
3 -36 6 -38 7 -38 45 0 27 -5 41 -19 48 -20 11 -857 17 -906 6 -52 -11 -158
-36 -215 -50 -30 -8 -86 -21 -125 -30 -38 -9 -97 -23 -130 -32 -73 -20 -199
-19 -380 1 -71 9 -211 22 -310 31 -99 9 -241 22 -315 30 -236 25 -330 29 -331
14 -1 -8 -2 -33 -3 -56 -1 -23 -5 -45 -8 -48 -3 -3 -37 10 -76 30 -142 72
-163 75 -664 75 -315 0 -449 -3 -454 -11 -3 -6 -8 -36 -9 -66 -4 -72 -15 -82
-57 -50 -109 82 -229 118 -408 124 -149 5 -236 -11 -348 -62 -31 -14 -59 -22
-64 -17 -4 4 -3 55 2 111 6 57 8 117 5 132 l-7 29 -689 0 -689 0 0 -1636z
m1182 1359 c2 -10 -2 -88 -9 -173 -7 -85 -17 -206 -23 -268 -5 -63 -14 -120
-21 -128 -9 -11 -50 -14 -194 -14 -158 0 -184 -2 -189 -16 -8 -20 -8 -398 0
-418 5 -14 29 -16 156 -16 82 0 157 -4 167 -10 18 -9 18 -25 13 -272 -2 -145
-8 -273 -13 -285 -8 -22 -13 -23 -166 -25 l-158 -3 -3 -503 -2 -503 -23 -8
c-13 -5 -68 -19 -123 -31 -320 -70 -354 -76 -365 -58 -10 15 -12 2686 -3 2724
l6 24 473 0 c442 0 473 -1 477 -17z m7567 -41 c13 -24 15 -591 2 -625 l-10
-25 -170 -4 c-100 -2 -175 -8 -181 -14 -7 -7 -10 -73 -8 -185 l3 -174 144 -3
c86 -1 150 -7 158 -14 19 -15 19 -491 0 -506 -8 -7 -71 -13 -153 -14 l-139 -3
0 -230 0 -230 176 -3 c173 -2 177 -3 183 -25 11 -43 7 -562 -5 -574 -8 -8 -37
-10 -83 -7 -161 10 -765 64 -783 70 -10 3 -13 260 -13 1242 0 1102 2 1241 15
1252 9 7 39 15 68 17 82 5 369 32 522 49 77 8 163 16 190 17 28 2 55 4 62 5 7
1 17 -6 22 -16z m-2750 -81 c12 -8 15 -182 19 -1159 5 -1120 4 -1150 -14
-1155 -25 -7 -177 -25 -285 -32 -93 -7 -101 -3 -119 52 -5 15 -25 73 -45 128
-20 55 -47 132 -60 170 -13 39 -38 107 -54 153 -17 46 -37 102 -45 125 -9 23
-31 87 -51 142 -20 55 -39 113 -43 128 -4 15 -12 28 -17 27 -11 0 -10 -255 3
-600 5 -118 6 -223 4 -232 -4 -17 -24 -18 -232 -18 -199 0 -229 2 -234 16 -3
9 -6 490 -6 1070 l0 1054 23 15 c13 8 43 19 68 24 50 10 120 26 194 46 105 27
123 28 136 3 13 -24 73 -189 89 -243 5 -16 25 -75 45 -130 20 -55 40 -113 45
-130 5 -16 32 -95 60 -175 28 -80 60 -172 71 -205 11 -33 22 -66 25 -74 3 -10
8 -11 16 -3 8 8 6 66 -6 214 -43 541 -55 776 -39 791 10 10 436 8 452 -2z
m-4048 -50 c257 -73 399 -319 451 -781 17 -149 17 -581 0 -730 -38 -335 -123
-549 -272 -686 -70 -65 -233 -124 -342 -124 -52 0 -190 32 -238 56 -162 79
-279 261 -337 524 -49 223 -68 661 -39 935 26 245 77 444 141 545 14 22 25 43
25 48 0 11 119 133 145 149 97 61 173 81 300 82 70 1 120 -5 166 -18z m1277 0
c78 -25 94 -34 164 -89 125 -98 211 -253 269 -487 18 -74 23 -289 9 -360 -7
-33 -15 -78 -19 -100 -17 -93 -91 -239 -157 -310 -29 -31 -29 -66 -1 -160 8
-27 25 -86 37 -130 12 -44 28 -102 36 -130 8 -27 19 -66 24 -85 5 -19 16 -57
24 -85 8 -27 24 -84 35 -125 12 -41 29 -100 38 -130 29 -100 28 -103 -47 -116
-36 -7 -92 -12 -125 -13 -34 -1 -114 -8 -178 -16 -65 -9 -121 -14 -126 -11 -7
5 -22 54 -55 181 -37 146 -69 273 -76 305 -27 125 -70 264 -79 254 -3 -3 -8
-146 -11 -317 -3 -172 -9 -318 -13 -324 -6 -10 -67 -13 -248 -13 -184 0 -239
3 -239 13 -3 282 2 2251 5 2258 4 5 147 9 339 9 303 0 339 -2 394 -19z m622
-1 c52 -5 176 -17 275 -25 99 -9 241 -22 315 -30 74 -8 173 -16 219 -19 47 -3
88 -9 93 -14 5 -5 7 -136 6 -293 l-3 -284 -132 -3 c-129 -3 -133 -3 -139 -26
-3 -12 -4 -97 -2 -188 2 -140 6 -169 20 -185 24 -26 23 -189 -1 -217 -14 -16
-16 -72 -19 -492 l-3 -473 -240 -3 c-132 -2 -247 1 -255 5 -12 7 -14 129 -14
830 0 627 -3 826 -12 835 -8 8 -50 12 -122 12 -88 0 -113 3 -128 17 -17 15
-18 37 -18 267 0 138 3 261 6 274 7 26 17 27 154 12z m2804 -66 c3 -9 6 -516
6 -1128 0 -852 -3 -1115 -12 -1124 -17 -17 -489 -17 -506 0 -9 9 -12 272 -12
1124 0 612 3 1119 6 1128 5 14 38 16 259 16 221 0 254 -2 259 -16z m1140 -40
c14 -5 16 -39 16 -279 0 -208 -3 -276 -12 -282 -7 -4 -71 -10 -143 -13 l-130
-5 -5 -855 c-3 -470 -6 -856 -8 -857 -1 -2 -114 -3 -252 -3 -137 0 -251 1
-252 3 -2 1 -5 371 -8 822 l-5 820 -125 5 c-69 3 -131 9 -137 13 -18 11 -19
547 -1 565 7 7 28 12 48 12 19 0 132 6 250 15 615 44 736 50 764 39z"/>
<path d="M1747 2318 c-31 -88 -42 -253 -42 -643 0 -492 22 -695 75 -695 25 0
36 17 56 90 17 59 18 115 19 600 0 480 -2 542 -18 599 -20 73 -31 91 -57 91
-12 0 -23 -14 -33 -42z"/>
<path d="M2997 2313 c-4 -3 -7 -143 -7 -310 l0 -303 24 0 c34 0 81 59 106 134
16 47 20 86 20 181 0 166 -31 254 -100 290 -33 17 -34 17 -43 8z"/>
</g>
</svg>
