<?xml version="1.0" standalone="no"?>
<!DOCTYPE svg PUBLIC "-//W3C//DTD SVG 20010904//EN"
 "http://www.w3.org/TR/2001/REC-SVG-20010904/DTD/svg10.dtd">
<svg version="1.0" xmlns="http://www.w3.org/2000/svg"
 width="273.000000pt" height="273.000000pt" viewBox="0 0 273.000000 273.000000"
 preserveAspectRatio="xMidYMid meet">
<metadata>
Created by potrace 1.10, written by Peter Selinger 2001-2011
</metadata>
<g transform="translate(0.000000,273.000000) scale(0.100000,-0.100000)"
fill="#000000" stroke="none">
<path d="M292 2608 c-3 -11 -14 -18 -28 -18 -14 0 -27 -7 -31 -16 -3 -8 -15
-14 -27 -12 -31 4 -67 -31 -60 -58 4 -14 0 -23 -10 -27 -9 -4 -16 -17 -16 -31
0 -14 -7 -26 -15 -28 -14 -3 -15 -117 -15 -1018 0 -901 1 -1015 15 -1018 8 -2
15 -14 15 -28 0 -14 7 -27 15 -30 8 -4 15 -15 15 -25 0 -35 30 -69 55 -63 15
4 24 0 28 -10 4 -9 17 -16 31 -16 14 0 26 -7 28 -15 3 -14 117 -15 1018 -15
901 0 1015 1 1018 15 2 8 12 15 23 15 26 0 149 123 149 148 0 11 7 22 15 24
14 3 16 68 16 581 l-1 579 -140 0 -141 0 1 -527 c0 -383 -3 -531 -11 -541 -16
-19 -1838 -21 -1857 -2 -19 19 -17 1841 2 1857 10 8 193 11 676 11 l662 -1 0
141 0 140 -713 3 c-671 2 -712 1 -717 -15z"/>
<path d="M1902 1875 c-317 -316 -584 -575 -592 -575 -8 0 -104 88 -212 195
-108 107 -203 195 -210 195 -17 0 -168 -151 -168 -168 0 -17 573 -592 589
-592 7 0 311 298 676 663 581 580 662 665 649 678 -46 44 -99 109 -96 119 4
11 -37 60 -51 60 -4 0 -267 -259 -585 -575z"/>
</g>
</svg>
