<?xml version="1.0" standalone="no"?>
<!DOCTYPE svg PUBLIC "-//W3C//DTD SVG 20010904//EN"
 "http://www.w3.org/TR/2001/REC-SVG-20010904/DTD/svg10.dtd">
<svg version="1.0" xmlns="http://www.w3.org/2000/svg"
 width="900.000000pt" height="900.000000pt" viewBox="0 0 900.000000 900.000000"
 preserveAspectRatio="xMidYMid meet">
<metadata>
Created by potrace 1.10, written by Peter Selinger 2001-2011
</metadata>
<g transform="translate(0.000000,900.000000) scale(0.100000,-0.100000)"
fill="#000000" stroke="none">
<path d="M1416 8765 c-9 -13 -16 -27 -16 -30 0 -2 -27 -61 -60 -130 -33 -69
-60 -127 -60 -130 0 -3 -13 -33 -29 -67 -30 -66 -112 -265 -138 -333 -8 -22
-20 -51 -25 -65 -6 -14 -14 -36 -18 -50 -5 -14 -18 -50 -30 -80 -22 -57 -107
-313 -136 -410 -10 -30 -23 -73 -29 -95 -7 -22 -19 -65 -28 -95 -8 -30 -22
-80 -30 -110 -56 -201 -90 -351 -151 -675 -37 -194 -79 -483 -72 -501 5 -12
118 -14 838 -12 l833 3 3 30 c9 77 -104 727 -164 941 -8 28 -14 59 -14 70 0
10 -6 39 -14 64 -17 52 -38 128 -61 220 -10 36 -23 83 -30 105 -7 22 -27 87
-45 145 -18 58 -44 137 -57 175 -13 39 -35 102 -48 140 -13 39 -33 95 -45 125
-12 30 -25 66 -30 80 -5 14 -15 41 -23 60 -13 33 -21 54 -52 125 -7 17 -27 66
-45 110 -18 44 -50 116 -71 160 -20 44 -55 119 -78 168 -22 48 -45 87 -50 87
-5 0 -16 -11 -25 -25z"/>
<path d="M4476 8765 c-9 -13 -16 -26 -16 -29 0 -2 -27 -62 -60 -132 -81 -173
-98 -209 -140 -314 -12 -30 -32 -77 -44 -105 -12 -27 -28 -66 -35 -85 -18 -51
-80 -218 -98 -265 -30 -77 -41 -111 -73 -215 -18 -58 -38 -121 -45 -140 -7
-19 -21 -64 -30 -100 -10 -36 -23 -85 -30 -110 -32 -111 -61 -222 -90 -340 -7
-30 -19 -77 -25 -105 -7 -27 -15 -63 -17 -80 -2 -16 -10 -59 -18 -95 -46 -213
-111 -630 -102 -654 6 -15 89 -16 839 -14 l833 3 3 30 c7 58 -83 600 -133 805
-7 30 -21 89 -30 130 -16 76 -36 154 -60 245 -8 28 -21 77 -30 110 -22 84 -45
164 -60 205 -7 19 -20 62 -30 95 -9 33 -22 71 -27 85 -6 14 -14 39 -18 55 -5
17 -18 55 -30 85 -12 30 -25 69 -30 85 -5 17 -18 55 -30 85 -12 30 -25 66 -30
80 -24 67 -80 202 -106 252 -8 14 -14 31 -14 37 0 6 -16 46 -36 88 -20 43 -48
103 -61 133 -66 145 -94 200 -102 200 -5 0 -16 -11 -25 -25z"/>
<path d="M7539 8768 c-15 -25 -21 -37 -108 -221 -34 -70 -61 -132 -61 -136 0
-5 -6 -22 -14 -38 -7 -15 -20 -44 -28 -63 -23 -55 -49 -113 -64 -143 -8 -16
-14 -33 -14 -39 0 -5 -6 -24 -14 -41 -28 -66 -39 -93 -46 -117 -5 -14 -18 -50
-30 -80 -12 -30 -25 -68 -30 -85 -8 -29 -18 -58 -45 -135 -7 -19 -27 -82 -45
-140 -18 -58 -38 -123 -45 -145 -7 -22 -20 -69 -29 -105 -10 -36 -23 -87 -31
-115 -66 -237 -139 -578 -179 -835 -40 -258 -48 -320 -43 -334 6 -15 89 -16
839 -14 824 3 833 3 837 23 4 22 -22 218 -44 335 -8 42 -15 86 -15 99 0 13 -6
53 -14 90 -8 36 -22 104 -31 151 -15 79 -23 115 -55 245 -7 28 -16 68 -20 90
-4 22 -17 76 -30 120 -12 44 -26 96 -31 115 -17 73 -62 224 -116 390 -14 41
-29 89 -33 105 -5 17 -18 55 -30 85 -35 91 -50 132 -75 205 -13 39 -48 128
-79 199 -31 72 -56 133 -56 138 0 4 -17 45 -39 90 -21 46 -53 115 -71 153 -73
157 -82 175 -90 175 -4 0 -14 -10 -21 -22z"/>
<path d="M561 5601 c-28 -52 -32 -397 -29 -2471 l3 -2115 895 0 895 0 3 2180
c3 2154 0 2381 -29 2410 -7 6 -312 10 -870 11 -783 1 -860 0 -868 -15z"/>
<path d="M3625 5604 c-33 -33 -36 -263 -33 -2444 l3 -2145 895 0 895 0 3 2175
c3 2136 0 2357 -28 2410 -9 17 -64 18 -866 17 -673 0 -859 -3 -869 -13z"/>
<path d="M6680 5600 c-28 -52 -31 -308 -28 -2425 l3 -2160 895 0 895 0 3 2150
c3 2115 0 2383 -28 2436 -8 14 -91 16 -870 16 -786 -1 -862 -2 -870 -17z"/>
<path d="M314 613 c-9 -21 -20 -51 -24 -68 -5 -16 -18 -55 -30 -85 -12 -30
-25 -69 -29 -85 -4 -17 -13 -40 -19 -52 -7 -12 -12 -37 -12 -57 0 -28 7 -40
37 -65 l38 -31 1155 0 1155 0 38 31 c45 37 47 65 11 164 -14 39 -29 84 -34
100 -10 36 -57 162 -65 175 -4 6 -400 10 -1105 10 l-1100 0 -16 -37z"/>
<path d="M3385 640 c-8 -13 -55 -139 -65 -175 -5 -16 -20 -61 -34 -100 -36
-99 -34 -127 11 -164 l38 -31 1155 0 1155 0 38 31 c41 34 48 72 23 131 -17 42
-35 94 -46 133 -7 27 -22 67 -59 158 l-11 27 -1099 0 c-706 0 -1102 -4 -1106
-10z"/>
<path d="M6445 640 c-8 -13 -49 -124 -90 -248 -45 -133 -45 -152 2 -191 l38
-31 1155 0 1155 0 38 31 c30 25 37 37 37 65 0 20 -5 45 -12 57 -6 12 -15 35
-19 52 -4 16 -17 55 -29 85 -12 30 -25 69 -30 85 -4 17 -15 47 -24 68 l-16 37
-1100 0 c-705 0 -1101 -4 -1105 -10z"/>
</g>
</svg>
