<?xml version="1.0" standalone="no"?>
<!DOCTYPE svg PUBLIC "-//W3C//DTD SVG 20010904//EN"
 "http://www.w3.org/TR/2001/REC-SVG-20010904/DTD/svg10.dtd">
<svg version="1.0" xmlns="http://www.w3.org/2000/svg"
 width="450.000000pt" height="450.000000pt" viewBox="0 0 450.000000 450.000000"
 preserveAspectRatio="xMidYMid meet">
<metadata>
Created by potrace 1.10, written by Peter Selinger 2001-2011
</metadata>
<g transform="translate(0.000000,450.000000) scale(0.100000,-0.100000)"
fill="#000000" stroke="none">
<path d="M2187 4253 c-4 -3 -7 -73 -7 -155 l0 -149 88 3 87 3 3 138 c3 97 0
142 -8 153 -13 15 -150 21 -163 7z"/>
<path d="M1955 3843 c-121 -29 -141 -34 -170 -43 -124 -35 -397 -165 -418
-197 -4 -7 -13 -13 -19 -13 -16 0 -168 -122 -240 -192 -107 -104 -231 -269
-293 -388 -10 -19 -22 -42 -26 -50 -5 -8 -12 -22 -15 -30 -9 -23 -36 -82 -49
-110 -7 -14 -16 -40 -20 -57 -3 -18 -11 -35 -16 -38 -5 -4 -9 -20 -9 -36 0
-17 -4 -38 -9 -48 -17 -31 -51 -217 -51 -275 l0 -57 87 3 87 3 13 70 c7 39 15
88 19 110 10 68 57 217 94 300 15 33 30 67 34 75 62 149 300 433 436 521 27
18 50 36 50 40 0 3 8 9 18 13 9 3 31 15 47 25 31 21 159 85 210 106 17 7 47
20 68 29 21 9 47 16 58 16 11 0 29 5 40 11 21 11 81 23 209 43 l75 12 3 87 3
87 -78 -1 c-43 0 -105 -8 -138 -16z"/>
<path d="M2369 3856 c-3 -3 -3 -126 0 -168 1 -5 17 -8 37 -8 34 0 124 -17 219
-41 22 -6 56 -14 75 -18 19 -5 49 -14 65 -21 63 -27 161 -72 175 -81 8 -5 25
-13 37 -19 69 -30 251 -166 331 -248 60 -62 181 -211 196 -242 4 -8 12 -24 19
-35 49 -79 113 -219 141 -310 11 -33 25 -77 32 -98 8 -20 14 -54 14 -74 0 -19
4 -52 10 -72 5 -20 12 -53 15 -74 l6 -38 87 3 87 3 3 37 c4 52 -45 297 -74
366 -8 18 -14 39 -14 47 0 7 -6 26 -14 42 -7 15 -20 44 -29 63 -42 98 -88 184
-133 249 -27 40 -53 80 -59 88 -32 49 -196 221 -280 294 -39 34 -164 119 -174
119 -5 0 -13 6 -19 13 -16 19 -257 137 -280 137 -6 0 -26 6 -44 14 -32 14 -73
25 -220 60 -60 14 -198 22 -209 12z"/>
<path d="M2235 3458 c-2 -7 -6 -40 -7 -73 -3 -54 -5 -60 -25 -63 -19 -3 -23
-10 -23 -43 0 -33 4 -40 25 -45 l25 -6 0 -129 0 -129 -25 -6 c-21 -5 -25 -12
-25 -40 0 -28 5 -36 25 -44 25 -9 25 -10 25 -140 l0 -130 -25 -6 c-35 -9 -36
-60 0 -76 22 -10 24 -17 27 -87 l3 -76 35 0 35 0 -2 55 c-3 76 3 99 32 110 38
15 35 62 -5 77 l-31 12 2 119 c1 66 4 125 8 130 3 5 15 11 26 13 28 6 36 79 8
79 -37 0 -43 20 -43 143 l0 118 30 10 c26 10 30 16 30 49 0 35 -3 39 -27 42
-30 3 -28 -2 -32 106 -1 40 -3 42 -31 42 -17 0 -33 -6 -35 -12z"/>
<path d="M232 2213 l3 -88 150 0 150 0 0 85 0 85 -153 3 -153 3 3 -88z"/>
<path d="M1158 2278 c-3 -20 -10 -24 -58 -28 -64 -6 -80 -14 -80 -40 0 -25 33
-42 78 -40 58 3 62 1 62 -26 0 -23 3 -25 42 -22 34 2 44 7 47 23 2 11 7 22 12
25 4 3 58 7 119 9 116 3 140 -4 140 -40 0 -15 7 -19 35 -19 28 0 37 5 44 23 9
23 16 24 124 31 62 4 121 4 129 1 9 -4 19 -17 22 -31 9 -35 63 -34 76 1 9 24
14 25 84 25 65 0 77 3 86 20 8 14 8 26 0 40 -9 17 -21 20 -86 20 -70 0 -75 1
-84 25 -7 19 -17 25 -40 25 -23 0 -31 -5 -36 -25 l-6 -25 -129 0 c-129 0 -130
0 -139 25 -8 20 -16 25 -44 25 -28 0 -35 -4 -38 -22 -3 -22 -7 -23 -135 -26
-130 -3 -132 -2 -135 20 -2 19 -10 24 -45 26 -37 3 -42 0 -45 -20z"/>
<path d="M2580 2275 c-8 -22 -15 -25 -60 -25 -60 0 -90 -13 -90 -40 0 -27 30
-40 90 -40 45 0 52 -3 60 -25 8 -20 16 -25 45 -25 28 0 35 4 35 19 0 36 22 42
141 36 63 -3 117 -5 121 -5 4 0 8 -10 10 -22 2 -19 10 -24 45 -26 39 -3 42 -1
45 25 3 27 5 28 73 31 39 2 98 0 133 -3 58 -6 62 -8 62 -31 0 -23 3 -25 43
-22 35 2 43 7 45 26 2 12 6 22 10 22 64 4 126 11 133 15 16 10 10 44 -10 55
-11 5 -44 10 -75 10 -49 0 -55 2 -58 23 -2 18 -10 23 -45 25 -37 3 -42 0 -45
-20 -3 -22 -7 -23 -123 -28 -66 -3 -126 -4 -132 -2 -7 2 -13 15 -13 29 0 22
-3 24 -42 21 -36 -2 -44 -7 -46 -26 -3 -22 -5 -23 -135 -20 -128 3 -132 4
-135 26 -3 18 -10 22 -38 22 -28 0 -36 -5 -44 -25z"/>
<path d="M4004 2287 c-3 -8 -4 -47 -2 -88 l3 -74 153 -3 152 -3 0 91 0 90
-150 0 c-117 0 -152 -3 -156 -13z"/>
<path d="M2232 2264 c-34 -24 -29 -67 10 -92 30 -20 34 -20 60 -4 23 13 28 23
28 54 0 32 -4 40 -26 48 -35 14 -46 13 -72 -6z"/>
<path d="M624 2111 c-2 -2 -4 -31 -4 -63 0 -53 12 -121 41 -233 5 -22 14 -56
19 -75 12 -52 27 -93 75 -202 28 -65 57 -124 76 -153 10 -16 22 -36 26 -44 20
-43 108 -160 176 -236 163 -181 354 -320 567 -413 19 -8 43 -19 52 -23 19 -9
117 -41 193 -63 100 -28 201 -46 263 -46 l63 0 -3 88 -3 87 -30 3 c-64 5 -238
45 -320 73 -16 6 -39 13 -50 16 -21 5 -80 30 -105 45 -8 4 -22 11 -30 14 -8 3
-22 9 -30 14 -8 5 -37 20 -65 35 -72 37 -231 159 -307 235 -73 73 -203 244
-237 311 -12 24 -26 51 -31 59 -31 52 -87 195 -99 251 -4 19 -11 41 -15 48 -4
6 -12 37 -17 69 -5 31 -15 90 -22 131 l-12 73 -83 2 c-46 0 -86 -1 -88 -3z"/>
<path d="M3744 2108 c-5 -8 -22 -93 -34 -173 -16 -110 -82 -303 -130 -385 -5
-8 -19 -35 -32 -60 -46 -92 -155 -236 -251 -330 -53 -53 -200 -171 -227 -183
-8 -4 -37 -21 -65 -37 -27 -17 -75 -42 -105 -56 -30 -15 -67 -33 -82 -40 -14
-8 -35 -14 -45 -14 -10 0 -23 -4 -28 -9 -6 -6 -30 -15 -55 -21 -110 -28 -219
-51 -269 -58 l-55 -7 0 -85 0 -85 60 -3 c70 -4 222 26 349 69 17 6 39 13 50
16 36 9 268 119 317 151 131 84 189 132 309 252 102 104 259 312 259 345 0 8
4 16 9 19 12 8 62 114 96 206 9 25 23 60 31 78 8 18 14 41 14 51 0 9 6 37 14
62 21 67 48 230 44 268 l-3 33 -83 2 c-46 0 -86 -2 -88 -6z"/>
<path d="M2242 2058 c-7 -7 -12 -41 -12 -83 0 -67 -2 -73 -25 -83 -18 -9 -25
-19 -25 -41 0 -22 5 -30 25 -35 l25 -6 0 -129 0 -129 -25 -6 c-21 -5 -25 -12
-25 -45 0 -33 4 -40 23 -43 21 -3 22 -7 25 -135 3 -130 2 -132 -20 -135 -19
-2 -24 -10 -26 -45 -3 -37 0 -42 20 -45 19 -2 23 -10 26 -43 5 -75 10 -87 40
-83 25 3 27 7 32 63 4 53 8 60 30 65 21 5 25 12 25 45 0 33 -4 40 -25 45 l-25
6 0 129 0 130 28 3 c23 3 27 8 27 37 0 27 -6 37 -27 47 -28 13 -28 13 -31 132
-2 124 4 146 39 146 31 0 26 58 -6 70 -29 11 -39 44 -33 104 3 24 1 51 -4 60
-11 19 -39 21 -56 4z"/>
<path d="M2260 490 l-75 -5 0 -150 0 -150 85 0 85 0 3 151 c2 116 0 153 -10
155 -7 2 -47 2 -88 -1z"/>
</g>
</svg>
