<?xml version="1.0" standalone="no"?>
<!DOCTYPE svg PUBLIC "-//W3C//DTD SVG 20010904//EN"
 "http://www.w3.org/TR/2001/REC-SVG-20010904/DTD/svg10.dtd">
<svg version="1.0" xmlns="http://www.w3.org/2000/svg"
 width="453.000000pt" height="438.000000pt" viewBox="0 0 453.000000 438.000000"
 preserveAspectRatio="xMidYMid meet">
<metadata>
Created by potrace 1.10, written by Peter Selinger 2001-2011
</metadata>
<g transform="translate(0.000000,438.000000) scale(0.100000,-0.100000)"
fill="#000000" stroke="none">
<path d="M121 4216 c-56 -60 -58 -70 -35 -158 8 -32 20 -82 28 -110 26 -104
37 -117 297 -368 139 -135 334 -324 432 -420 98 -96 182 -177 188 -181 35 -21
488 -472 511 -508 34 -54 36 -93 8 -197 -33 -121 -25 -127 123 -99 108 21 149
19 181 -6 14 -11 26 -24 26 -28 0 -7 -135 -117 -210 -169 -25 -17 -85 -61
-135 -97 -49 -37 -112 -82 -140 -100 -84 -57 -231 -189 -297 -266 -35 -40 -90
-103 -124 -139 -33 -36 -68 -78 -79 -95 -18 -29 -37 -53 -83 -102 -13 -14 -34
-42 -47 -64 -14 -21 -36 -46 -49 -54 -14 -9 -29 -30 -35 -47 -6 -17 -22 -45
-34 -62 -13 -17 -36 -55 -52 -83 -15 -29 -31 -53 -34 -53 -4 0 -15 -17 -26
-37 -11 -21 -32 -56 -47 -77 -16 -21 -28 -43 -28 -48 0 -4 -12 -27 -27 -51
-15 -23 -34 -55 -43 -72 -8 -16 -29 -36 -47 -44 -28 -12 -31 -18 -31 -56 0
-42 -18 -88 -51 -131 -9 -12 -21 -30 -28 -40 -7 -11 -28 -43 -48 -73 -57 -86
-48 -95 58 -60 62 20 256 97 312 124 119 56 262 129 325 165 41 24 84 48 95
54 54 30 296 194 340 231 28 23 73 59 100 80 28 20 90 74 139 119 49 44 95 86
101 91 7 6 61 84 120 175 184 280 454 630 486 630 21 0 330 -411 474 -630 59
-91 113 -169 120 -175 6 -5 52 -47 101 -91 126 -116 246 -209 414 -321 80 -54
154 -103 165 -109 11 -6 54 -30 95 -54 63 -36 206 -109 325 -165 56 -27 250
-104 312 -124 109 -36 116 -26 51 70 -104 151 -120 182 -120 234 0 38 -3 44
-31 56 -20 9 -39 29 -52 55 -11 22 -30 55 -42 71 -13 17 -23 35 -23 41 0 5
-13 28 -30 50 -16 23 -30 46 -30 52 0 5 -13 24 -29 42 -15 18 -37 51 -49 73
-11 22 -36 64 -56 94 -20 29 -36 59 -36 66 0 7 -11 20 -25 29 -14 9 -36 34
-50 55 -13 22 -34 50 -47 64 -46 49 -65 73 -83 102 -11 17 -46 59 -79 95 -34
36 -89 99 -124 139 -66 77 -213 209 -297 266 -27 18 -90 63 -140 100 -49 36
-110 80 -135 97 -25 17 -82 61 -127 97 -77 61 -82 66 -69 85 22 35 58 41 149
27 163 -25 174 -26 181 -3 4 11 -2 54 -14 96 -28 104 -26 143 8 197 23 35 477
487 512 509 5 3 89 84 188 180 98 96 292 285 431 420 260 251 271 264 297 368
8 28 20 78 28 110 23 88 21 98 -35 158 -44 46 -57 54 -88 54 -47 0 -266 -56
-293 -74 -11 -8 -88 -81 -172 -163 -83 -81 -315 -308 -516 -503 -201 -195
-435 -423 -520 -506 -85 -84 -173 -161 -195 -173 -51 -27 -119 -27 -210 -1
-38 11 -77 18 -86 15 -22 -7 -29 -39 -18 -78 5 -18 12 -70 15 -117 6 -78 4
-88 -17 -119 -13 -19 -29 -36 -35 -38 -5 -2 -20 14 -32 36 -26 46 -28 113 -8
210 23 109 9 122 -99 91 -91 -26 -159 -26 -210 1 -22 12 -110 89 -195 173 -85
83 -319 311 -520 506 -201 195 -433 422 -516 503 -84 82 -161 155 -172 163
-27 18 -246 74 -293 74 -31 0 -44 -8 -88 -54z m560 -395 c34 -34 38 -74 12
-111 -32 -46 -56 -59 -105 -60 -40 0 -49 4 -67 29 -30 42 -27 91 7 123 62 57
108 63 153 19z m3252 18 c78 -40 101 -111 52 -163 -59 -63 -185 -5 -185 87 0
37 49 87 85 87 14 0 36 -5 48 -11z m-3058 -204 c36 -35 34 -94 -4 -137 -27
-30 -35 -33 -86 -33 -48 0 -59 4 -75 25 -36 46 -22 109 33 148 44 31 100 30
132 -3z m2891 3 c56 -38 70 -101 34 -148 -16 -21 -27 -25 -75 -25 -51 0 -59 3
-86 33 -85 95 22 212 127 140z m-2721 -164 c8 -4 22 -19 30 -35 41 -78 -4
-159 -88 -159 -60 0 -75 7 -92 41 -30 56 -6 127 49 149 25 10 78 12 101 4z
m2558 -34 c26 -29 29 -38 24 -79 -7 -60 -33 -81 -99 -81 -43 0 -54 4 -79 31
-33 35 -38 82 -14 129 19 36 29 40 89 36 41 -3 55 -9 79 -36z m-2368 -150 c33
-13 57 -67 49 -112 -19 -100 -153 -126 -198 -39 -23 43 -20 75 11 111 40 48
84 61 138 40z m2172 -34 c37 -40 41 -71 17 -117 -44 -87 -179 -61 -197 38 -21
111 102 164 180 79z m-1952 -178 c40 -47 32 -117 -19 -160 -33 -27 -111 -24
-141 6 -62 62 -25 178 60 188 50 5 74 -3 100 -34z m1759 1 c34 -40 41 -70 26
-113 -15 -47 -44 -66 -100 -66 -96 1 -146 106 -84 179 23 27 32 31 79 31 47 0
56 -4 79 -31z m-1607 -149 c22 -8 33 -21 43 -50 39 -118 -82 -212 -169 -131
-49 46 -46 101 9 154 41 39 66 44 117 27z m1413 -27 c55 -53 58 -108 9 -154
-90 -84 -222 29 -165 140 33 62 99 68 156 14z"/>
<path d="M893 1358 c-21 -22 -30 -48 -18 -48 13 0 46 43 43 56 -2 12 -8 11
-25 -8z"/>
<path d="M3590 1369 c1 -14 34 -59 44 -59 15 0 4 29 -19 50 -17 16 -25 19 -25
9z"/>
<path d="M757 1193 c-10 -9 -8 -33 2 -33 5 0 11 9 14 20 5 20 -3 26 -16 13z"/>
<path d="M3737 1181 c3 -12 10 -21 15 -21 13 0 6 32 -9 37 -7 3 -9 -3 -6 -16z"/>
</g>
</svg>
