<?xml version="1.0" standalone="no"?>
<!DOCTYPE svg PUBLIC "-//W3C//DTD SVG 20010904//EN"
 "http://www.w3.org/TR/2001/REC-SVG-20010904/DTD/svg10.dtd">
<svg version="1.0" xmlns="http://www.w3.org/2000/svg"
 width="900.000000pt" height="900.000000pt" viewBox="0 0 900.000000 900.000000"
 preserveAspectRatio="xMidYMid meet">
<metadata>
Created by potrace 1.10, written by Peter Selinger 2001-2011
</metadata>
<g transform="translate(0.000000,900.000000) scale(0.100000,-0.100000)"
fill="#000000" stroke="none">
<path d="M2980 8517 c-39 -15 -74 -40 -121 -86 -54 -55 -69 -77 -87 -132 -21
-61 -22 -83 -20 -270 l3 -204 1479 -3 c885 -1 1483 2 1490 7 8 7 9 75 5 233
-5 200 -8 228 -27 269 -27 58 -100 139 -143 160 -111 53 -11 49 -1317 48
l-1207 0 -55 -22z m459 -123 c42 -35 44 -98 5 -135 -25 -23 -29 -24 -203 -24
-154 0 -180 2 -204 18 -56 36 -60 97 -10 143 25 23 30 24 204 24 176 0 178 0
208 -26z"/>
<path d="M2587 7651 c-66 -31 -137 -117 -137 -165 0 -9 -6 -30 -14 -48 -8 -18
-29 -80 -46 -138 -18 -58 -38 -121 -45 -140 -7 -19 -20 -62 -30 -95 -9 -33
-23 -76 -30 -95 -7 -19 -18 -51 -25 -70 -6 -19 -16 -51 -20 -70 -9 -39 -32
-111 -48 -150 -5 -14 -18 -52 -27 -85 -10 -33 -23 -76 -30 -95 -7 -19 -27 -82
-45 -140 -17 -58 -38 -120 -46 -138 -15 -35 -18 -62 -8 -62 4 0 30 26 57 58
107 120 309 313 412 391 107 82 247 180 275 194 8 4 42 23 75 42 86 50 289
148 373 179 102 38 120 45 177 61 33 10 78 23 100 30 91 28 328 73 425 80 249
20 320 22 432 15 195 -14 335 -28 376 -39 20 -5 73 -17 117 -26 44 -10 100
-23 125 -31 105 -31 178 -54 230 -74 30 -12 66 -25 80 -29 89 -28 337 -157
480 -249 84 -55 236 -166 255 -187 6 -6 32 -29 60 -51 63 -49 246 -233 298
-299 22 -27 49 -56 60 -64 19 -13 20 -13 14 3 -4 10 -10 30 -13 44 -3 15 -11
43 -18 62 -29 79 -38 107 -46 140 -4 19 -14 51 -20 70 -7 19 -18 51 -25 70 -7
19 -18 51 -25 70 -6 19 -15 51 -20 70 -4 19 -12 46 -18 60 -5 14 -25 72 -42
130 -18 58 -38 121 -45 140 -7 19 -21 62 -30 95 -10 33 -23 76 -30 95 -7 19
-27 82 -45 140 -17 58 -38 120 -46 138 -8 18 -14 38 -14 43 0 24 -65 91 -111
114 l-48 25 -1618 -1 c-1525 -1 -1620 -2 -1656 -18z m1187 -150 c20 -19 26
-34 26 -67 0 -36 -5 -46 -29 -63 -28 -21 -40 -21 -498 -21 -257 0 -473 -4
-479 -8 -5 -4 -25 -54 -43 -112 -18 -58 -39 -121 -46 -140 -7 -19 -20 -62 -30
-95 -9 -33 -23 -75 -31 -93 -8 -18 -14 -40 -15 -50 0 -9 -10 -37 -22 -61 -26
-52 -62 -67 -115 -50 -34 11 -52 40 -52 84 0 23 26 117 55 195 7 19 20 62 30
95 9 33 23 76 30 95 7 19 21 62 30 95 10 33 24 75 31 93 8 18 14 40 14 48 0
30 40 69 78 75 20 4 263 6 539 5 l501 -1 26 -24z"/>
<path d="M3980 7103 c-126 -6 -385 -58 -525 -105 -16 -5 -43 -13 -60 -18 -16
-5 -55 -18 -85 -30 -30 -12 -67 -25 -82 -30 -24 -7 -174 -76 -219 -100 -69
-36 -119 -64 -144 -81 -16 -10 -36 -22 -44 -25 -26 -13 -234 -157 -257 -179
-6 -5 -33 -28 -59 -50 -202 -167 -370 -352 -514 -565 -42 -63 -80 -122 -84
-130 -4 -8 -17 -31 -28 -50 -39 -64 -128 -246 -164 -335 -33 -83 -105 -304
-105 -323 0 -10 -6 -38 -14 -63 -8 -24 -21 -87 -30 -139 -9 -52 -21 -124 -27
-160 -17 -104 -23 -444 -9 -556 30 -244 42 -317 63 -384 6 -19 14 -53 18 -75
12 -63 46 -172 76 -242 7 -17 13 -36 13 -43 0 -7 6 -24 13 -38 8 -15 21 -43
29 -62 29 -65 119 -245 139 -275 10 -16 23 -39 29 -50 110 -207 392 -531 630
-722 94 -75 219 -165 260 -186 8 -4 29 -16 45 -26 89 -57 290 -157 390 -194
74 -27 130 -49 163 -63 18 -8 40 -14 48 -14 9 0 37 -7 63 -15 194 -60 507
-105 736 -105 131 0 372 23 475 46 36 8 74 14 84 14 11 0 44 7 75 16 31 9 79
22 106 30 166 47 362 123 455 176 8 4 20 10 25 12 6 2 17 7 25 10 8 3 29 15
46 25 17 10 51 29 75 42 45 24 190 118 199 129 3 3 28 22 55 40 162 112 399
348 557 555 175 231 346 565 421 825 39 133 45 159 60 230 48 230 52 266 52
575 0 244 -4 319 -18 400 -34 188 -69 337 -93 393 -8 18 -14 41 -14 52 0 11
-6 34 -14 52 -8 18 -29 69 -46 113 -109 270 -293 572 -470 770 -52 59 -228
234 -285 284 -48 42 -219 172 -260 198 -190 120 -366 211 -530 276 -69 28
-189 69 -215 74 -14 2 -45 11 -70 18 -45 13 -143 34 -251 55 -130 25 -465 36
-709 23z m468 -653 c107 -12 238 -35 292 -52 19 -6 51 -15 70 -19 33 -7 54
-13 145 -46 84 -31 282 -126 340 -163 17 -11 37 -23 45 -27 17 -8 73 -45 80
-54 3 -3 28 -21 55 -40 80 -55 216 -175 298 -263 66 -71 190 -237 217 -291 6
-11 19 -33 30 -50 18 -29 109 -209 135 -270 42 -96 86 -246 119 -400 22 -104
40 -362 32 -462 -13 -180 -26 -280 -46 -363 -40 -165 -35 -149 -75 -260 -41
-112 -111 -266 -126 -275 -5 -4 -9 -13 -9 -22 0 -8 -13 -32 -30 -53 -16 -21
-30 -45 -30 -53 0 -9 -6 -20 -13 -24 -7 -4 -28 -30 -45 -57 -18 -26 -52 -71
-75 -98 -23 -28 -58 -69 -77 -92 -77 -91 -355 -329 -420 -359 -8 -4 -28 -16
-45 -26 -85 -55 -222 -122 -335 -166 -25 -9 -60 -23 -78 -31 -18 -8 -40 -14
-50 -14 -9 0 -34 -6 -57 -14 -197 -69 -594 -98 -824 -61 -164 27 -307 61 -379
91 -18 8 -40 14 -50 14 -9 0 -26 7 -36 15 -11 8 -27 15 -35 15 -24 0 -261 122
-343 176 -204 134 -361 281 -539 501 -75 93 -259 423 -259 465 0 9 -4 19 -9
22 -4 3 -18 38 -31 78 -12 40 -28 91 -35 113 -69 213 -97 604 -60 836 25 158
61 307 91 377 8 18 14 40 14 50 0 9 7 26 15 36 8 11 15 26 15 33 0 11 56 129
119 251 54 106 213 313 326 427 91 91 299 265 319 265 2 0 32 18 65 40 33 22
71 45 83 50 13 6 41 21 63 33 93 52 281 124 420 160 233 60 498 81 723 57z
m-1757 -219 c57 -57 38 -99 -85 -191 -105 -78 -288 -286 -364 -413 -7 -12 -22
-35 -32 -52 -28 -44 -120 -233 -120 -248 0 -6 -7 -21 -15 -31 -8 -11 -15 -28
-15 -38 0 -9 -6 -32 -14 -50 -26 -61 -68 -224 -86 -333 -44 -273 -33 -717 26
-975 8 -36 14 -74 14 -84 0 -11 6 -42 14 -70 43 -151 50 -181 50 -226 1 -60
-15 -79 -72 -87 -37 -5 -45 -2 -71 26 -17 18 -33 49 -37 69 -3 20 -11 57 -19
82 -78 276 -119 641 -108 970 5 171 40 406 75 520 6 19 15 51 19 70 7 34 16
62 47 145 36 99 124 281 181 375 110 185 316 418 460 524 76 55 109 59 152 17z"/>
<path d="M4200 6323 c-8 -3 -27 -17 -42 -31 -28 -25 -28 -28 -28 -148 l0 -122
32 -31 c30 -29 38 -32 87 -29 49 3 57 6 85 41 28 35 31 47 35 119 3 86 -14
151 -49 183 -20 18 -93 29 -120 18z"/>
<path d="M2922 5793 c-64 -31 -92 -94 -65 -150 25 -54 140 -161 180 -169 96
-18 164 58 134 148 -13 39 -116 150 -161 173 -36 19 -47 19 -88 -2z"/>
<path d="M5477 5791 c-43 -20 -106 -77 -148 -135 -36 -48 -37 -89 -4 -138 20
-30 33 -38 69 -43 64 -10 83 -1 163 78 56 55 73 78 78 108 9 53 -17 105 -66
129 -46 24 -44 24 -92 1z"/>
<path d="M4150 5371 c-19 -11 -46 -34 -60 -53 l-25 -33 0 -475 c0 -536 -5
-499 80 -555 l40 -26 311 3 311 3 35 25 c54 36 73 75 72 146 0 51 -5 67 -29
98 -51 67 -88 76 -299 76 l-186 0 0 345 c0 312 -2 348 -17 373 -56 86 -152
116 -233 73z"/>
<path d="M2410 4521 c-64 -16 -96 -67 -85 -137 11 -73 53 -95 184 -96 138 -1
180 27 181 119 0 91 -51 124 -190 122 -36 -1 -76 -4 -90 -8z"/>
<path d="M5885 4523 c-75 -12 -116 -103 -80 -173 25 -49 64 -62 176 -61 112 2
141 11 169 56 23 38 25 76 6 113 -28 55 -47 63 -148 67 -51 2 -106 1 -123 -2z"/>
<path d="M3005 3327 c-62 -46 -135 -123 -150 -159 -14 -34 -13 -41 1 -77 21
-53 51 -71 118 -71 l54 0 71 76 c68 73 71 78 71 125 0 60 -14 91 -50 112 -38
23 -79 21 -115 -6z"/>
<path d="M5340 3310 c-33 -33 -40 -47 -40 -78 0 -21 8 -48 17 -61 28 -41 137
-143 163 -153 59 -22 146 24 151 82 6 70 0 86 -64 151 -82 85 -104 99 -149 99
-31 0 -45 -7 -78 -40z"/>
<path d="M4195 2848 c-62 -34 -65 -43 -65 -170 0 -66 4 -128 10 -138 14 -26
73 -60 105 -60 43 0 91 35 109 80 23 57 21 173 -3 227 -29 63 -102 91 -156 61z"/>
<path d="M7017 4903 c-11 -11 -8 -63 9 -148 20 -101 24 -594 5 -694 -15 -76
-11 -81 65 -81 50 0 128 22 190 54 30 15 114 100 114 115 0 4 5 12 11 18 7 7
20 36 30 65 29 80 27 356 -2 430 -47 119 -139 202 -260 232 -67 16 -150 21
-162 9z m247 -132 c45 -21 81 -72 75 -105 -2 -11 -16 -28 -30 -39 -24 -17 -31
-18 -63 -7 -79 26 -116 117 -63 153 29 21 30 21 81 -2z"/>
<path d="M2008 2655 c-4 -5 33 -129 67 -225 7 -19 27 -82 45 -140 18 -58 38
-121 45 -140 7 -19 27 -82 45 -140 18 -58 38 -121 45 -140 7 -19 21 -62 30
-95 10 -33 23 -76 30 -95 7 -19 27 -82 45 -140 18 -58 39 -120 46 -138 8 -18
14 -38 14 -45 0 -24 52 -88 93 -115 l42 -27 1691 0 1692 0 48 41 c58 49 99
127 124 234 4 19 14 51 20 70 7 19 18 51 25 70 7 19 21 62 30 95 10 33 23 76
30 95 7 19 27 82 45 140 18 58 38 121 45 140 7 19 27 82 45 140 18 58 38 121
45 140 7 19 20 62 30 95 9 33 23 75 31 93 16 37 19 82 5 82 -5 0 -16 -11 -25
-24 -75 -116 -401 -421 -569 -535 -101 -68 -109 -73 -178 -114 -35 -20 -71
-42 -79 -47 -19 -12 -214 -107 -257 -126 -74 -32 -100 -42 -138 -56 -80 -30
-111 -40 -145 -48 -19 -4 -48 -13 -65 -18 -92 -32 -223 -58 -427 -87 -143 -20
-551 -20 -663 0 -44 8 -95 15 -113 15 -52 0 -299 61 -452 111 -91 30 -250 93
-299 119 -9 5 -36 18 -61 30 -42 20 -74 37 -160 85 -19 11 -63 39 -98 63 -35
23 -65 42 -68 42 -10 0 -170 125 -264 206 -104 89 -246 234 -325 331 -50 61
-57 68 -67 58z"/>
<path d="M2750 908 c0 -215 15 -264 109 -358 49 -49 81 -72 124 -88 l59 -22
1203 0 1204 0 73 34 c88 41 127 79 169 171 32 67 33 74 38 237 3 93 5 173 3
178 -3 7 -523 10 -1493 10 l-1489 0 0 -162z m640 -20 c31 -51 26 -82 -18 -116
l-38 -31 -156 0 c-161 -1 -193 4 -228 39 -28 28 -27 86 2 117 21 23 25 23 220
23 l198 0 20 -32z"/>
</g>
</svg>
