<?xml version="1.0" standalone="no"?>
<!DOCTYPE svg PUBLIC "-//W3C//DTD SVG 20010904//EN"
 "http://www.w3.org/TR/2001/REC-SVG-20010904/DTD/svg10.dtd">
<svg version="1.0" xmlns="http://www.w3.org/2000/svg"
 width="73.000000pt" height="73.000000pt" viewBox="0 0 73.000000 73.000000"
 preserveAspectRatio="xMidYMid meet">
<metadata>
Created by potrace 1.10, written by Peter Selinger 2001-2011
</metadata>
<g transform="translate(0.000000,73.000000) scale(0.100000,-0.100000)"
fill="#000000" stroke="none">
<path d="M135 485 c1 -77 5 -98 29 -145 16 -30 49 -75 75 -99 l46 -45 -47 28
c-27 15 -48 23 -48 18 0 -14 42 -48 88 -71 24 -12 45 -28 49 -36 8 -21 50 -18
62 4 6 10 27 25 48 34 41 16 83 51 83 68 0 6 -15 1 -34 -10 -50 -32 -50 -26 3
27 55 55 91 136 97 222 3 40 1 48 -5 30 -5 -14 -10 -38 -11 -55 -1 -23 -5 -16
-14 27 -7 32 -16 61 -21 65 -4 5 -6 1 -3 -8 4 -9 9 -42 12 -75 6 -50 5 -56 -6
-40 -7 10 -23 31 -36 45 l-23 26 21 -42 c32 -68 22 -144 -25 -183 -14 -12 -15
-9 -11 31 l6 44 -13 -39 c-7 -21 -26 -50 -42 -63 -23 -21 -36 -24 -68 -20 -47
6 -71 28 -92 82 l-15 40 5 -44 c5 -40 4 -43 -10 -31 -47 39 -56 108 -25 180
l20 45 -25 -28 c-14 -15 -25 -35 -25 -43 0 -8 -4 -13 -8 -10 -4 2 -5 33 -1 68
3 35 5 65 3 66 -3 5 -23 -67 -26 -93 -1 -11 -5 12 -8 50 -7 69 -7 69 -5 -20z"/>
</g>
</svg>
