<?xml version="1.0" standalone="no"?>
<!DOCTYPE svg PUBLIC "-//W3C//DTD SVG 20010904//EN"
 "http://www.w3.org/TR/2001/REC-SVG-20010904/DTD/svg10.dtd">
<svg version="1.0" xmlns="http://www.w3.org/2000/svg"
 width="85.000000pt" height="85.000000pt" viewBox="0 0 85.000000 85.000000"
 preserveAspectRatio="xMidYMid meet">
<metadata>
Created by potrace 1.10, written by Peter Selinger 2001-2011
</metadata>
<g transform="translate(0.000000,85.000000) scale(0.100000,-0.100000)"
fill="#000000" stroke="none">
<path d="M152 633 c-3 -103 25 -171 99 -245 61 -62 64 -70 11 -38 -40 25 -45
25 -32 1 5 -11 36 -32 67 -46 62 -29 93 -52 93 -69 0 -6 -5 -5 -12 2 -21 21
-38 13 -38 -17 0 -38 62 -96 88 -82 31 17 56 51 58 81 2 31 -13 39 -34 18 -8
-8 -12 -9 -12 -1 0 17 43 47 93 67 25 9 53 28 61 42 21 30 15 30 -40 -2 -24
-14 -44 -21 -44 -16 0 6 9 13 19 17 30 9 101 91 124 143 14 32 21 72 23 127
l2 80 -6 -67 c-7 -69 -21 -103 -23 -52 0 16 -5 38 -10 49 -6 14 -7 4 -3 -31 3
-33 2 -54 -5 -59 -6 -3 -11 0 -11 8 0 7 -14 26 -31 43 l-30 29 27 -48 c35 -63
30 -116 -16 -161 l-32 -31 5 45 6 45 -18 -40 c-10 -22 -27 -48 -38 -58 -31
-28 -87 -33 -133 -12 -36 16 -47 30 -74 95 -3 8 -4 -5 -1 -30 l5 -45 -36 40
c-32 36 -35 44 -32 86 3 26 15 62 27 80 l23 34 -36 -37 c-20 -21 -39 -38 -43
-38 -7 0 2 84 12 115 6 16 5 17 -4 5 -6 -8 -13 -34 -17 -57 -10 -66 -23 -51
-27 30 l-3 72 -2 -72z"/>
</g>
</svg>
